<svg xmlns="http://www.w3.org/2000/svg" viewBox="0 0 1200 420" width="1200" height="420" role="img" aria-label="autumn — Python, AI, and image processing">
<title>autumn — Flow Field</title>
<desc>Decorative blue, cyan, violet, and pink streamlines tracing a continuous vector field for the autumn714 profile.</desc>
<defs>
<radialGradient id="ff-vig" cx="0.5" cy="0.5" r="0.72">
<stop offset="0.5" stop-color="#05060c" stop-opacity="0"/><stop offset="1" stop-color="#05060c" stop-opacity="0.85"/>
</radialGradient>
</defs>
<rect width="1200" height="420" fill="#05060c"/>
<g fill="none" stroke-linecap="round"><g stroke="#8fdcff" stroke-width="2.00" opacity="0.750"><path d="M96.2 129.1 L92.6 135.1 L88.6 140.9 L84.4 146.4 L80.0 151.9 L75.4 157.1 L70.7 162.3 L65.9 167.4 L61.1 172.5 L56.3 177.7 L51.6 182.8 L46.9 188.0 L42.3 193.3 L37.9 198.8"/><path d="M126.7 242.8 L120.5 239.6 L114.2 236.7 L107.6 234.2 L100.9 232.1 L94.1 230.5 L87.2 229.4 L80.2 228.9 L73.2 229.0 L66.3 229.8 L59.4 231.1 L52.7 233.2 L46.2 235.8 L40.0 239.1 L34.2 242.9"/><path d="M964.1 277.1 L970.2 273.8 L976.2 270.1 L982.0 266.1 L987.5 261.8 L992.8 257.3 L997.9 252.4 L1002.7 247.4 L1007.2 242.0 L1011.5 236.5 L1015.5 230.8 L1019.2 224.8"/><path d="M79.8 136.1 L76.2 142.1 L72.3 147.9 L68.3 153.6 L64.2 159.3 L59.9 164.9 L55.7 170.4 L51.4 175.9 L47.1 181.5"/><path d="M88.8 334.4 L82.6 337.6 L76.9 341.7 L71.9 346.5 L67.7 352.1 L64.5 358.4 L62.5 365.1"/><path d="M718.4 320.4 L725.4 320.2 L732.4 320.6 L739.3 321.4 L746.2 322.7 L753.0 324.4 L759.7 326.5 L766.3 328.9 L772.7 331.5 L779.1 334.4 L785.4 337.6 L791.5 340.9 L797.6 344.4 L803.5 348.1 L809.4 351.9"/><path d="M74.9 253.3 L67.9 253.1 L60.9 253.6 L54.0 254.8 L47.3 256.8 L40.9 259.5 L34.8 262.9 L29.1 267.0 L23.8 271.6"/><path d="M729.0 286.9 L735.8 288.3 L742.7 289.9 L749.4 291.8 L756.1 294.0 L762.6 296.3 L769.1 298.9 L775.5 301.8 L781.9 304.8 L788.1 308.0 L794.2 311.4 L800.2 314.9"/><path d="M107.8 131.5 L103.9 137.3 L99.7 142.9 L95.1 148.2 L90.2 153.2 L85.2 158.1 L80.1 162.9 L74.8 167.5 L69.6 172.1 L64.3 176.7 L59.1 181.4"/><path d="M129.5 247.1 L123.4 243.6 L117.2 240.5 L110.8 237.7 L104.2 235.3 L97.4 233.3 L90.6 231.9 L83.7 231.0 L76.7 230.7"/><path d="M304.3 293.8 L301.6 300.2 L298.4 306.5 L294.7 312.4 L290.6 318.1 L286.1 323.5 L281.3 328.5 L276.1 333.2 L270.7 337.7 L265.0 341.8 L259.2 345.6 L253.2 349.3 L247.1 352.7 L240.9 356.0"/><path d="M122.4 195.0 L115.4 195.5 L108.5 196.1 L101.5 196.9 L94.6 197.9 L87.7 199.1 L80.8 200.6 L74.1 202.5"/><path d="M974.3 313.0 L981.3 313.2 L988.3 313.4 L995.3 313.7 L1002.3 313.9 L1009.3 314.3 L1016.3 314.8 L1023.2 315.5"/><path d="M72.1 178.1 L66.4 182.2 L60.8 186.5 L55.3 190.8 L50.0 195.4 L44.8 200.1 L39.9 205.0 L35.1 210.1"/><path d="M970.2 116.0 L963.2 116.0 L956.2 116.7 L949.4 118.1 L942.6 120.0 L936.1 122.4 L929.6 125.0 L923.2 127.9 L916.9 130.9 L910.6 134.0 L904.2 136.9 L897.8 139.7 L891.3 142.2 L884.7 144.5 L877.9 146.4"/><path d="M726.4 241.4 L733.4 240.6 L740.3 239.6 L747.2 238.5 L754.1 237.1 L760.9 235.4 L767.5 233.3 L774.0 230.7"/><path d="M752.0 250.3 L759.0 250.0 L766.0 249.6 L772.9 249.0 L779.9 248.1 L786.8 246.9 L793.6 245.3 L800.3 243.3 L806.8 240.7 L813.0 237.4 L818.7 233.4 L823.8 228.6 L828.1 223.1 L831.3 216.8 L833.3 210.1"/><path d="M737.2 284.5 L744.0 286.1 L750.8 287.9 L757.5 290.0 L764.1 292.3 L770.6 294.8 L777.1 297.6 L783.4 300.5 L789.7 303.6 L795.9 306.9 L802.0 310.3 L808.0 313.9"/><path d="M749.1 207.1 L754.2 202.3 L758.6 196.9 L762.2 190.9 L764.7 184.4 L766.2 177.5 L766.5 170.5 L765.8 163.5 L764.3 156.7 L762.0 150.1 L759.2 143.7 L756.1 137.4"/><path d="M692.6 175.0 L697.3 169.8 L701.4 164.1 L705.0 158.1 L708.0 151.8 L710.3 145.2 L711.9 138.3 L712.9 131.4 L713.3 124.4 L713.4 117.4 L713.1 110.4 L712.5 103.5"/><path d="M321.1 254.7 L323.3 261.4 L325.3 268.1 L327.1 274.8 L328.9 281.6 L330.6 288.4 L332.3 295.2 L334.2 301.9 L336.2 308.6 L338.4 315.3 L341.1 321.7 L344.2 328.0 L348.0 333.9 L352.4 339.4 L357.5 344.1"/><path d="M962.2 267.3 L967.6 262.9 L972.6 258.0 L977.3 252.8 L981.5 247.2 L985.1 241.2 L988.2 234.9 L990.5 228.3 L992.2 221.5 L993.0 214.6 L993.0 207.6 L992.0 200.7 L990.1 193.9"/><path d="M335.5 190.6 L342.5 190.7 L349.5 190.0 L356.3 188.5 L362.9 186.1 L369.1 182.9 L374.9 178.9 L380.2 174.4 L385.1 169.4"/><path d="M128.0 268.7 L122.2 264.9 L116.2 261.2 L110.0 257.9 L103.7 254.9 L97.2 252.3 L90.5 250.2 L83.7 248.7 L76.8 247.7 L69.8 247.4 L62.8 247.8 L55.9 249.0 L49.1 250.8 L42.6 253.4 L36.4 256.7"/><path d="M708.3 123.8 L708.8 116.8 L709.0 109.8 L708.9 102.8"/><path d="M312.5 320.5 L311.1 327.4 L309.5 334.2 L308.0 341.1 L306.7 347.9 L305.5 354.8 L304.7 361.8 L304.3 368.8"/><path d="M937.6 189.1 L931.9 185.0 L925.8 181.5 L919.4 178.7 L912.9 176.2 L906.2 174.2 L899.4 172.4 L892.6 170.8 L885.7 169.4"/><path d="M118.4 242.3 L112.0 239.3 L105.5 236.8 L98.8 234.7 L92.0 233.1 L85.1 232.1 L78.1 231.6 L71.1 231.8 L64.1 232.6 L57.3 234.0 L50.6 236.2 L44.2 239.0"/><path d="M121.0 200.5 L114.0 200.5 L107.0 200.7 L100.1 201.1 L93.1 201.8 L86.2 202.8 L79.3 204.1 L72.5 205.9 L65.9 208.1 L59.4 210.7 L53.1 213.7"/><path d="M332.1 134.7 L338.3 131.5 L344.2 127.7 L349.9 123.6 L355.3 119.2 L360.6 114.7 L365.9 110.1 L371.2 105.5 L376.5 100.9"/><path d="M756.4 151.9 L754.3 145.2 L751.7 138.7 L748.8 132.3 L745.6 126.1 L742.3 119.9 L739.0 113.8 L735.7 107.6 L732.4 101.4"/><path d="M948.0 105.5 L941.3 107.7 L934.9 110.4 L928.6 113.4 L922.4 116.8 L916.4 120.3 L910.3 123.9 L904.3 127.4 L898.3 130.9 L892.1 134.2 L885.7 137.2"/><path d="M745.0 230.5 L751.7 228.3 L758.2 225.7 L764.4 222.5 L770.3 218.8 L775.7 214.3 L780.5 209.2 L784.4 203.4 L787.2 197.0 L788.9 190.2 L789.3 183.2 L788.6 176.2 L786.8 169.5"/><path d="M61.4 312.9 L55.2 316.2 L49.6 320.4 L44.6 325.3 L40.4 330.9 L37.1 337.1 L34.7 343.7 L33.2 350.5 L32.8 357.5 L33.2 364.5"/><path d="M955.3 328.2 L962.1 329.9 L968.9 331.6 L975.7 333.2 L982.5 334.8 L989.3 336.4 L996.1 338.0 L1002.9 339.6 L1009.7 341.2 L1016.5 342.9 L1023.3 344.6"/><path d="M362.8 186.4 L369.1 183.2 L374.9 179.3 L380.2 174.8 L385.1 169.8 L389.6 164.4 L393.8 158.8 L397.7 152.9 L401.4 147.0 L405.0 141.0 L408.6 135.0 L412.3 129.1 L416.3 123.3"/><path d="M738.5 302.7 L745.3 304.5 L751.9 306.5 L758.5 308.9 L765.0 311.5 L771.4 314.4 L777.7 317.4 L783.9 320.7 L790.0 324.2 L796.0 327.8 L801.8 331.6 L807.6 335.6 L813.3 339.7 L818.9 343.8 L824.4 348.1"/><path d="M710.6 186.6 L715.4 181.6 L719.7 176.0 L723.2 169.9 L725.9 163.5 L727.9 156.8 L729.0 149.8 L729.3 142.8 L729.0 135.9 L728.1 128.9 L726.8 122.0 L725.3 115.2"/><path d="M938.2 150.7 L931.2 151.3 L924.2 152.1 L917.3 153.1 L910.4 154.1 L903.5 155.1 L896.5 156.0 L889.5 156.7 L882.6 157.2 L875.6 157.5 L868.6 157.5"/><path d="M343.3 162.2 L349.6 159.3 L355.6 155.6 L361.2 151.4 L366.4 146.8 L371.3 141.8 L376.0 136.6 L380.5 131.2 L384.9 125.7 L389.3 120.3 L393.8 115.0 L398.5 109.8 L403.4 104.8"/><path d="M712.5 104.8"/><path d="M961.2 295.1 L968.0 293.8 L974.9 292.3 L981.7 290.6 L988.4 288.8 L995.2 287.0 L1001.9 285.1 L1008.7 283.2 L1015.4 281.4 L1022.2 279.8 L1029.1 278.4 L1036.0 277.3 L1043.0 276.6 L1050.0 276.5 L1057.0 276.9"/><path d="M944.8 110.0 L938.3 112.4 L931.9 115.2 L925.6 118.3 L919.5 121.7 L913.4 125.1 L907.3 128.6 L901.1 131.9"/><path d="M740.7 319.8 L747.5 321.2 L754.3 323.1 L760.9 325.2 L767.5 327.7 L773.9 330.5 L780.2 333.5 L786.4 336.7 L792.6 340.1 L798.6 343.6"/><path d="M932.6 220.6 L931.2 213.8 L928.6 207.3 L925.1 201.2 L920.6 195.8 L915.5 191.0 L909.9 186.9 L903.9 183.2 L897.7 180.1 L891.2 177.3 L884.7 174.8 L878.1 172.5 L871.4 170.4 L864.7 168.3"/><path d="M958.5 110.6 L951.6 111.8 L944.9 113.7 L938.3 116.0 L931.8 118.7 L925.5 121.8 L919.3 125.0 L913.1 128.3 L906.9 131.5 L900.7 134.7 L894.4 137.7"/><path d="M696.9 307.0 L703.8 305.9 L710.8 305.4 L717.8 305.4 L724.8 305.9 L731.7 306.8 L738.6 308.1 L745.4 309.8 L752.1 311.8 L758.7 314.2 L765.2 316.7 L771.6 319.6"/><path d="M974.6 312.3 L981.6 312.5 L988.6 312.7 L995.6 312.9 L1002.6 313.1 L1009.6 313.4 L1016.6 313.9 L1023.5 314.5 L1030.5 315.4 L1037.4 316.6 L1044.2 318.1 L1051.0 320.0 L1057.6 322.2"/><path d="M959.9 156.4 L953.0 155.1 L946.0 154.5 L939.0 154.3 L932.0 154.5 L925.0 155.0 L918.0 155.6 L911.1 156.3 L904.1 157.0"/><path d="M337.4 287.2 L340.3 293.6 L343.4 299.9 L346.8 305.9 L350.7 311.8 L355.1 317.2 L360.2 322.1 L365.8 326.2 L372.0 329.5"/><path d="M940.9 117.9 L934.4 120.4 L928.0 123.3 L921.7 126.3 L915.4 129.5 L909.2 132.6 L902.9 135.7 L896.5 138.6 L890.0 141.2 L883.4 143.6 L876.7 145.6 L869.9 147.2 L863.0 148.3 L856.0 149.0 L849.0 149.3"/><path d="M101.8 237.1 L95.1 235.2 L88.2 233.8 L81.3 233.0 L74.3 232.8 L67.3 233.3 L60.4 234.4 L53.6 236.2 L47.1 238.6"/><path d="M356.8 222.4 L363.8 222.8 L370.8 222.4 L377.6 221.1 L384.3 218.9 L390.6 215.8 L396.4 212.0 L401.8 207.5 L406.7 202.5 L411.1 197.1"/><path d="M301.1 261.1 L299.6 268.0 L297.3 274.6 L294.4 280.9 L290.7 286.9 L286.3 292.4 L281.4 297.3 L275.9 301.6"/><path d="M946.0 244.4 L948.6 237.9 L950.2 231.1 L950.7 224.1 L950.1 217.1 L948.3 210.3 L945.4 204.0 L941.6 198.1 L936.9 192.9 L931.6 188.3 L925.7 184.5 L919.6 181.2 L913.1 178.4 L906.5 176.0"/></g><g stroke="#8fdcff" stroke-width="1.45" opacity="0.875"><path d="M853.5 264.6 L860.2 262.7 L866.8 260.1 L873.0 256.9 L878.8 252.9 L884.0 248.2 L888.4 242.8 L891.9 236.8 L894.2 230.2 L895.3 223.2 L895.1 216.3 L893.5 209.4 L890.8 203.0"/><path d="M853.9 178.8 L848.3 174.6 L842.5 170.7 L836.5 167.0 L830.5 163.5 L824.4 160.0 L818.3 156.6 L812.2 153.2 L806.1 149.7 L800.0 146.2 L794.0 142.6"/><path d="M864.0 215.0 L863.7 208.0 L862.0 201.2 L859.2 194.8 L855.4 188.9 L851.0 183.5 L846.1 178.5 L840.7 174.0 L835.2 169.7 L829.4 165.7 L823.5 161.9"/><path d="M917.5 156.8 L910.5 157.3 L903.5 157.9 L896.5 158.5 L889.6 158.8 L882.6 159.1 L875.6 159.1 L868.6 158.9 L861.6 158.4 L854.6 157.6 L847.7 156.6 L840.8 155.3"/><path d="M131.2 230.9 L124.7 228.2 L118.1 225.8 L111.4 223.8 L104.6 222.2 L97.7 221.0 L90.7 220.2 L83.8 220.0 L76.8 220.3 L69.8 221.2 L63.0 222.7 L56.3 224.7 L49.8 227.4 L43.6 230.5"/><path d="M257.6 181.1 L259.1 187.9 L259.8 194.9 L259.7 201.9 L258.7 208.8 L256.6 215.5 L253.4 221.7 L249.1 227.3"/><path d="M851.0 303.1 L857.5 305.8 L863.9 308.5 L870.3 311.4 L876.7 314.3 L883.0 317.2 L889.4 320.2 L895.7 323.2"/><path d="M899.1 286.5 L906.0 285.7 L912.9 284.6 L919.7 283.0 L926.5 281.0 L933.0 278.6 L939.4 275.7 L945.6 272.4 L951.4 268.5 L956.9 264.2 L962.1 259.4 L966.7 254.2 L970.8 248.6 L974.3 242.5 L977.2 236.1"/><path d="M211.4 211.6 L205.0 214.2 L198.2 216.0 L191.2 216.9 L184.2 217.2 L177.2 217.0 L170.3 216.4 L163.3 215.5 L156.4 214.4 L149.5 213.2 L142.6 211.9"/><path d="M790.1 220.1 L794.9 215.0 L798.8 209.1 L801.5 202.7 L803.1 195.9 L803.4 188.9 L802.4 182.0 L800.4 175.3 L797.5 168.9 L794.0 162.9 L789.9 157.1 L785.5 151.7 L780.9 146.4"/><path d="M193.5 110.5 L195.6 117.2 L197.3 124.0 L198.6 130.9 L199.3 137.8 L199.4 144.8 L198.7 151.8 L197.1 158.6 L194.5 165.1"/><path d="M926.9 302.0 L933.9 302.2 L940.9 302.1 L947.9 301.9 L954.8 301.4 L961.8 300.8 L968.8 300.1 L975.7 299.2 L982.6 298.2 L989.6 297.2 L996.5 296.1 L1003.4 295.1 L1010.3 294.1 L1017.3 293.3 L1024.3 292.7"/><path d="M879.7 116.5 L874.0 120.6 L868.1 124.3 L861.9 127.6 L855.5 130.5 L848.9 132.8 L842.2 134.5 L835.3 135.7 L828.3 136.2 L821.3 136.1 L814.3 135.5 L807.4 134.3 L800.6 132.7"/><path d="M855.5 300.1 L862.1 302.4 L868.7 304.8 L875.3 307.2 L881.9 309.6 L888.5 311.9 L895.1 314.3 L901.6 316.7 L908.2 319.1"/><path d="M856.0 246.8 L861.3 242.2 L865.7 236.8 L869.2 230.7 L871.5 224.1 L872.4 217.2 L872.0 210.2 L870.3 203.4 L867.5 197.0 L863.7 191.1 L859.2 185.7 L854.2 180.8 L848.8 176.4 L843.1 172.3 L837.3 168.4"/><path d="M810.5 271.5 L817.5 272.2 L824.5 272.7 L831.5 273.1 L838.5 273.2 L845.5 273.1 L852.5 272.7 L859.4 271.9 L866.3 270.7 L873.1 269.1"/><path d="M928.0 204.8 L924.1 199.0 L919.3 193.8 L914.0 189.3 L908.2 185.3 L902.1 181.9 L895.8 179.0 L889.3 176.3 L882.7 173.9 L876.1 171.7 L869.4 169.6 L862.7 167.5 L856.0 165.5"/><path d="M807.1 199.2 L807.6 192.2 L806.9 185.3 L805.1 178.5 L802.3 172.1 L798.8 166.0 L794.8 160.3 L790.4 154.9 L785.7 149.6"/><path d="M897.7 325.0 L904.0 328.1 L910.2 331.2 L916.5 334.4 L922.7 337.6 L928.9 340.8 L935.2 344.0 L941.4 347.1 L947.7 350.3 L953.9 353.4 L960.2 356.5"/><path d="M289.4 329.9 L285.1 335.4 L280.6 340.8 L275.9 345.9 L271.0 351.0 L266.0 355.9 L261.1 360.9 L256.1 365.8 L251.3 370.9"/><path d="M804.8 176.7 L801.8 170.4 L798.1 164.5 L794.0 158.8 L789.5 153.5 L784.7 148.3 L779.8 143.3 L774.9 138.4"/><path d="M161.3 169.8 L155.5 173.7 L149.4 177.1 L142.9 179.8 L136.3 182.1 L129.6 184.0 L122.8 185.6 L115.9 187.1"/><path d="M201.7 156.9 L199.8 163.6 L196.9 170.0 L193.0 175.8 L188.2 180.9 L182.7 185.2 L176.6 188.7 L170.1 191.4 L163.4 193.4 L156.5 194.8"/><path d="M780.9 193.5 L782.5 186.7 L782.9 179.7 L782.1 172.7 L780.4 166.0 L777.9 159.4 L774.7 153.2 L771.1 147.2"/><path d="M210.9 226.0 L204.0 226.9 L197.0 227.1 L190.0 226.7 L183.0 225.9 L176.1 224.6 L169.3 223.2 L162.5 221.5 L155.7 219.8 L148.9 218.1 L142.2 216.3 L135.3 214.7"/><path d="M895.0 303.5 L901.9 304.9 L908.8 306.1 L915.7 307.3 L922.6 308.3 L929.5 309.2 L936.5 310.0 L943.5 310.7 L950.4 311.3 L957.4 311.7 L964.4 312.1"/><path d="M766.1 178.8 L766.7 171.9 L766.2 164.9 L764.8 158.0 L762.6 151.4 L759.9 144.9 L756.8 138.6 L753.4 132.5 L749.8 126.5 L746.1 120.6 L742.4 114.6"/><path d="M836.1 297.1 L842.6 299.7 L849.1 302.3 L855.6 305.0 L862.0 307.8 L868.4 310.6 L874.8 313.4 L881.2 316.4 L887.5 319.3"/><path d="M781.6 110.1 L775.0 107.8 L768.6 105.0 L762.5 101.7"/><path d="M196.2 329.0 L189.4 327.4 L182.7 325.5 L176.0 323.3 L169.5 320.9 L162.9 318.3 L156.5 315.6 L150.1 312.7 L143.8 309.8 L137.4 306.9 L131.1 303.9 L124.7 301.0"/><path d="M880.4 316.4 L886.7 319.4 L893.1 322.4 L899.3 325.5 L905.6 328.6 L911.9 331.7 L918.1 334.9 L924.4 338.0 L930.6 341.2 L936.9 344.3 L943.1 347.5 L949.4 350.6 L955.7 353.7 L962.0 356.7"/><path d="M183.4 118.5 L183.9 125.5 L183.8 132.5 L183.1 139.4 L181.5 146.3 L179.1 152.8 L175.7 159.0 L171.5 164.6 L166.6 169.5"/><path d="M856.5 164.8 L849.8 162.9 L843.1 160.8 L836.5 158.6 L829.9 156.2 L823.4 153.7 L816.9 151.1 L810.5 148.3 L804.1 145.3 L797.9 142.1 L791.8 138.7 L785.7 135.2 L779.8 131.4 L774.0 127.5 L768.4 123.3"/><path d="M794.8 164.5 L790.9 158.7 L786.6 153.2 L782.1 147.9 L777.4 142.7 L772.5 137.6 L767.7 132.6 L762.8 127.5 L758.0 122.4 L753.4 117.2 L748.8 111.9"/><path d="M865.8 251.2 L871.2 246.8 L875.9 241.6 L879.7 235.8 L882.4 229.3 L883.8 222.4 L883.8 215.4 L882.5 208.6 L880.1 202.0 L876.6 195.9"/><path d="M857.3 327.2 L862.9 331.3 L868.5 335.5 L874.1 339.7 L879.6 344.1 L885.0 348.5 L890.4 353.0 L895.7 357.5 L901.0 362.1 L906.3 366.7 L911.5 371.3"/><path d="M183.5 218.6 L176.5 218.2 L169.6 217.4 L162.6 216.4 L155.7 215.1 L148.9 213.8 L142.0 212.5 L135.1 211.3 L128.2 210.1"/><path d="M192.1 175.3 L187.3 180.4 L181.8 184.7 L175.7 188.2 L169.3 190.9 L162.6 192.9 L155.7 194.3 L148.8 195.3 L141.8 196.0 L134.8 196.4 L127.8 196.8"/><path d="M140.4 135.4 L136.7 141.4 L132.4 146.9 L127.6 152.0 L122.4 156.7 L116.8 160.9 L111.0 164.8 L105.0 168.4 L98.8 171.8 L92.7 175.1 L86.5 178.3 L80.3 181.6 L74.1 184.9"/><path d="M227.6 156.7 L228.5 163.7 L228.6 170.7 L227.8 177.6 L226.0 184.4 L223.1 190.7 L219.1 196.5 L214.2 201.5 L208.5 205.5 L202.2 208.6 L195.5 210.8 L188.7 212.2 L181.7 212.8 L174.7 213.0"/><path d="M272.7 312.3 L266.5 315.6 L260.1 318.4 L253.4 320.5 L246.6 322.0 L239.6 322.8 L232.6 323.1 L225.7 322.9 L218.7 322.1 L211.8 320.8 L205.0 319.1 L198.4 316.9"/><path d="M876.8 269.6 L883.4 267.3 L889.8 264.4 L895.9 260.9 L901.5 256.7 L906.4 251.8 L910.7 246.2 L914.0 240.0"/><path d="M887.0 248.4 L891.3 242.9 L894.7 236.8 L897.0 230.1 L897.9 223.2 L897.6 216.2 L895.9 209.4 L893.2 203.0 L889.4 197.1 L884.8 191.8 L879.7 187.0 L874.2 182.7"/><path d="M147.6 287.0 L142.0 282.9 L136.3 278.8 L130.6 274.7 L124.8 270.8 L118.9 267.1 L112.8 263.6 L106.6 260.4 L100.2 257.5"/><path d="M914.9 294.8 L921.9 294.5 L928.9 293.9 L935.9 293.0 L942.8 291.8 L949.6 290.4 L956.4 288.6 L963.1 286.6 L969.7 284.4 L976.3 281.8"/><path d="M914.3 307.1 L921.3 308.2 L928.2 309.1 L935.1 309.9 L942.1 310.6 L949.1 311.2 L956.1 311.7 L963.1 312.1 L970.0 312.4 L977.0 312.6 L984.0 312.8"/><path d="M776.6 137.3 L771.4 132.6 L766.3 127.9 L761.2 123.0 L756.3 118.0 L751.5 112.9 L746.9 107.6 L742.5 102.2"/><path d="M200.7 235.9 L193.8 234.9 L187.0 233.5 L180.2 231.8 L173.4 229.9 L166.8 227.8 L160.1 225.6 L153.4 223.4 L146.8 221.3 L140.1 219.3 L133.3 217.4 L126.5 215.7 L119.7 214.2 L112.8 213.0"/><path d="M793.5 133.8 L787.1 130.9 L780.9 127.7 L774.9 124.1 L769.0 120.3 L763.4 116.1 L757.9 111.7 L752.7 107.0 L747.8 102.1"/><path d="M819.7 224.0 L823.6 218.1 L826.2 211.7 L827.6 204.8 L827.6 197.8 L826.4 190.9 L824.0 184.3 L820.8 178.1 L816.8 172.4 L812.3 167.0 L807.5 161.9 L802.4 157.1"/><path d="M138.8 333.1 L131.9 332.7 L124.9 332.6 L117.9 332.9 L110.9 333.8 L104.1 335.2 L97.4 337.3 L91.0 340.2 L85.1 343.9 L79.8 348.5 L75.3 353.8 L71.8 359.9 L69.4 366.5"/><path d="M898.2 305.4 L905.0 306.8 L911.9 308.2 L918.8 309.5 L925.7 310.6 L932.6 311.7 L939.5 312.6 L946.5 313.4 L953.4 314.2 L960.4 314.8 L967.4 315.4"/><path d="M185.4 303.9 L179.4 300.3 L173.5 296.5 L167.8 292.5 L162.1 288.4 L156.6 284.1 L151.0 279.8 L145.5 275.5 L140.0 271.2 L134.3 267.1 L128.6 263.0"/><path d="M225.6 319.1 L218.7 318.1 L211.8 316.6 L205.1 314.6 L198.6 312.1 L192.2 309.3 L185.9 306.1 L179.8 302.7 L173.9 299.0 L168.1 295.1"/><path d="M808.5 179.0 L805.5 172.7 L801.9 166.7 L797.7 161.1 L793.2 155.7 L788.4 150.6 L783.5 145.6 L778.4 140.8 L773.4 135.9 L768.3 131.1 L763.3 126.2 L758.4 121.2 L753.6 116.1 L749.0 110.8"/><path d="M214.8 128.6 L217.3 135.1 L219.5 141.7 L221.3 148.5 L222.4 155.4 L222.8 162.4 L222.5 169.4 L221.1 176.3 L218.7 182.8"/><path d="M852.9 142.5 L845.9 143.4 L839.0 143.7 L832.0 143.6 L825.0 142.9 L818.1 141.8 L811.3 140.2 L804.5 138.2 L798.0 135.9"/><path d="M772.7 146.3 L768.6 140.7 L764.3 135.1 L759.9 129.7 L755.5 124.2 L751.1 118.7 L746.8 113.2 L742.7 107.6 L738.7 101.8"/><path d="M847.3 299.4 L853.8 301.9 L860.4 304.4 L866.9 307.0 L873.4 309.6 L879.8 312.2 L886.3 314.9 L892.8 317.6 L899.2 320.3 L905.7 323.1"/><path d="M892.9 311.1 L899.6 313.3 L906.2 315.4 L912.9 317.6 L919.6 319.6 L926.3 321.7 L933.0 323.7 L939.7 325.7 L946.4 327.6 L953.2 329.5 L959.9 331.3 L966.7 333.1"/><path d="M802.9 329.9 L808.7 333.9 L814.4 338.0 L820.0 342.2 L825.5 346.5 L830.9 350.9 L836.2 355.4 L841.5 360.0 L846.8 364.6 L852.0 369.3"/><path d="M157.5 237.6 L151.2 234.5 L144.9 231.5 L138.5 228.7 L132.0 226.0 L125.4 223.7 L118.7 221.6 L111.9 219.8 L105.1 218.5"/><path d="M912.9 248.9 L916.5 242.9 L919.2 236.4 L920.7 229.6 L920.9 222.6 L919.9 215.7 L917.7 209.0 L914.5 202.8 L910.3 197.2 L905.4 192.2"/><path d="M773.1 302.4 L779.4 305.3 L785.6 308.5 L791.8 311.9 L797.8 315.4 L803.7 319.1 L809.6 323.0 L815.3 327.0 L821.0 331.1 L826.5 335.4 L832.0 339.8 L837.4 344.3 L842.7 348.8"/><path d="M206.8 113.5 L209.9 119.9 L212.7 126.3 L215.3 132.8 L217.5 139.4 L219.2 146.2 L220.4 153.1 L220.9 160.1 L220.6 167.1 L219.4 173.9 L217.1 180.6 L213.7 186.7"/><path d="M291.3 318.2 L286.9 323.6 L282.1 328.7 L277.1 333.6 L271.7 338.1 L266.1 342.3 L260.4 346.3 L254.5 350.1 L248.5 353.7 L242.4 357.2 L236.3 360.6 L230.3 364.1"/><path d="M871.1 140.1 L864.4 142.1 L857.6 143.6 L850.7 144.6 L843.7 145.1 L836.7 145.1 L829.7 144.6 L822.8 143.7 L815.9 142.3 L809.2 140.5 L802.5 138.3 L796.0 135.7 L789.6 132.9"/><path d="M153.1 268.8 L147.6 264.5 L142.0 260.2 L136.4 256.1 L130.6 252.2 L124.6 248.5 L118.5 245.1 L112.2 242.1 L105.7 239.4"/><path d="M288.6 327.8 L284.2 333.2 L279.4 338.4 L274.5 343.3 L269.4 348.1 L264.1 352.8 L258.8 357.3 L253.5 361.8 L248.2 366.4 L243.0 371.1"/><path d="M789.6 322.1 L795.6 325.8 L801.5 329.5 L807.3 333.5 L813.0 337.5 L818.6 341.7 L824.1 346.0 L829.6 350.4 L834.9 354.9 L840.2 359.5 L845.5 364.1"/><path d="M822.7 161.1 L816.8 157.4 L810.8 153.8 L804.8 150.2 L798.8 146.5 L792.9 142.7 L787.1 138.9 L781.3 134.9 L775.7 130.8 L770.1 126.5 L764.7 122.1 L759.5 117.5 L754.4 112.6 L749.5 107.6"/><path d="M183.6 198.6 L176.9 200.5 L170.0 201.8 L163.0 202.5 L156.0 202.9 L149.0 202.9 L142.1 202.7 L135.1 202.4 L128.1 202.2 L121.1 201.9 L114.1 201.8 L107.1 201.9"/></g><g stroke="#8fdcff" stroke-width="1.45" opacity="0.750"><path d="M336.5 168.8 L343.3 167.0 L349.7 164.3 L355.9 160.9 L361.6 156.9 L367.0 152.4 L371.9 147.5 L376.6 142.3 L381.1 136.9 L385.4 131.3 L389.6 125.8 L394.0 120.3 L398.4 114.9"/><path d="M959.5 244.6 L962.3 238.2 L964.2 231.5 L965.0 224.5 L964.9 217.5 L963.6 210.6 L961.3 204.0 L957.9 197.9 L953.6 192.3 L948.6 187.5 L943.0 183.3 L936.9 179.8 L930.5 177.0 L923.9 174.6"/><path d="M308.8 185.8 L315.1 188.9 L321.6 191.5 L328.3 193.5 L335.2 194.9 L342.1 195.5 L349.1 195.3 L356.0 194.3 L362.8 192.3 L369.2 189.6 L375.2 186.0 L380.8 181.8 L385.9 177.0"/><path d="M106.5 125.5 L103.0 131.6 L99.1 137.4 L94.9 143.0 L90.4 148.4 L85.7 153.5 L80.8 158.5 L75.7 163.4"/><path d="M722.1 332.2 L729.1 331.5 L736.1 331.4 L743.0 332.0 L750.0 333.0 L756.8 334.5 L763.5 336.4 L770.2 338.6 L776.7 341.1 L783.1 344.0 L789.4 347.0 L795.6 350.3 L801.7 353.7 L807.7 357.3"/><path d="M63.0 261.0 L56.1 262.0 L49.3 263.7 L42.7 266.2 L36.5 269.4 L30.7 273.3 L25.4 277.9 L20.6 282.9 L16.3 288.5"/><path d="M706.5 263.0 L713.5 263.0 L720.5 263.3 L727.5 263.7 L734.5 264.3 L741.4 265.1 L748.4 266.0 L755.3 267.0"/><path d="M96.5 231.8 L89.6 230.5 L82.6 229.8 L75.6 229.6 L68.7 230.1 L61.7 231.2 L55.0 233.0 L48.4 235.4 L42.1 238.5 L36.1 242.1 L30.5 246.3 L25.3 250.9 L20.4 256.0 L16.0 261.4 L12.1 267.2"/><path d="M94.0 149.0 L89.1 154.0 L84.1 158.9 L78.9 163.6 L73.7 168.3 L68.5 172.9 L63.2 177.6 L58.0 182.3 L52.9 187.1"/><path d="M703.8 134.6 L705.3 127.8 L706.3 120.9 L706.9 113.9 L707.2 106.9"/><path d="M746.3 169.5 L747.3 162.6 L747.3 155.6 L746.5 148.6 L745.0 141.8 L743.1 135.1 L740.7 128.5 L738.0 122.0 L735.3 115.6"/><path d="M123.7 314.3 L116.9 312.6 L110.1 311.2 L103.1 310.1 L96.2 309.5 L89.2 309.4 L82.2 309.8 L75.3 311.0 L68.6 312.9 L62.1 315.6 L56.1 319.1"/><path d="M978.4 232.6 L979.9 225.7 L980.6 218.8 L980.3 211.8 L979.0 204.9 L976.6 198.3 L973.3 192.2 L969.1 186.6 L964.1 181.7 L958.4 177.5 L952.3 174.1 L945.9 171.4 L939.2 169.3 L932.4 167.7"/><path d="M970.4 263.6 L975.5 258.8 L980.3 253.7 L984.7 248.2 L988.5 242.4 L991.9 236.3 L994.7 229.8 L996.8 223.2 L998.2 216.3 L998.8 209.3 L998.5 202.3"/><path d="M703.8 237.8 L710.7 236.6 L717.6 235.4 L724.4 234.1 L731.3 232.7 L738.1 231.0 L744.8 229.0 L751.4 226.7 L757.8 223.9 L764.0 220.6 L769.8 216.6 L775.0 212.0 L779.5 206.6 L783.1 200.6 L785.6 194.1"/><path d="M109.7 321.6 L102.7 321.6 L95.7 322.2 L88.8 323.4 L82.1 325.3 L75.7 328.0 L69.6 331.5 L64.1 335.9"/><path d="M982.9 128.2 L976.1 126.5 L969.1 125.7 L962.1 125.6 L955.1 126.2 L948.2 127.4 L941.4 129.0 L934.8 131.1 L928.1 133.4 L921.6 135.9 L915.1 138.4 L908.5 140.9 L902.0 143.3 L895.3 145.5 L888.6 147.5"/><path d="M127.1 320.2 L120.2 318.9 L113.3 317.9 L106.3 317.2 L99.3 317.1 L92.3 317.4 L85.4 318.4 L78.6 320.1 L72.0 322.5 L65.8 325.8 L60.2 329.9 L55.2 334.8"/><path d="M754.7 107.2 L749.6 102.4"/><path d="M329.9 329.8 L331.5 336.7 L333.5 343.3 L336.2 349.8 L339.6 355.9 L343.8 361.6 L348.7 366.5 L354.4 370.5"/><path d="M977.8 308.5 L984.8 308.3 L991.8 308.1 L998.8 308.0 L1005.8 307.9 L1012.8 308.0 L1019.8 308.2 L1026.8 308.7 L1033.8 309.4 L1040.7 310.5 L1047.5 311.9 L1054.3 313.8"/><path d="M328.1 237.9 L332.5 243.3 L337.2 248.6 L342.0 253.6 L347.0 258.5 L352.4 263.0 L358.1 267.1 L364.1 270.6 L370.5 273.5 L377.2 275.6 L384.1 276.7 L391.1 276.9 L398.0 276.1 L404.8 274.3"/><path d="M742.4 243.0 L749.3 242.1 L756.2 241.1 L763.1 239.8 L769.9 238.1 L776.6 236.0 L783.1 233.5 L789.3 230.3 L795.2 226.4 L800.4 221.8 L805.0 216.5"/><path d="M700.1 144.8 L702.5 138.2 L704.3 131.5 L705.6 124.6 L706.5 117.6 L706.9 110.6 L707.1 103.6"/><path d="M92.9 198.4 L86.0 199.7 L79.2 201.3 L72.5 203.3 L65.9 205.6 L59.4 208.4 L53.2 211.5 L47.2 215.1 L41.5 219.1 L36.0 223.5 L30.8 228.3 L26.0 233.3 L21.5 238.7 L17.3 244.3 L13.4 250.1"/><path d="M748.4 285.7 L755.1 287.7 L761.8 289.9 L768.4 292.3 L774.9 294.9 L781.3 297.7 L787.6 300.6 L793.9 303.8 L800.0 307.1"/><path d="M759.6 314.0 L766.1 316.6 L772.5 319.5 L778.8 322.6 L784.9 325.9 L791.0 329.4 L797.0 333.0 L802.8 336.8 L808.6 340.8"/><path d="M333.0 197.5 L339.9 198.6 L346.9 199.0 L353.9 198.6 L360.7 197.3 L367.4 195.1 L373.7 192.1 L379.6 188.3"/><path d="M335.6 226.5 L341.5 230.1 L347.8 233.3 L354.2 236.0 L361.0 238.0 L367.9 239.2 L374.8 239.5 L381.8 239.0 L388.7 237.5"/><path d="M939.1 230.5 L939.5 223.5 L938.6 216.5 L936.5 209.9 L933.4 203.6 L929.3 197.9 L924.5 192.8 L919.0 188.4 L913.1 184.6 L907.0 181.3 L900.6 178.5 L894.0 176.0 L887.4 173.8 L880.7 171.7 L874.0 169.8"/><path d="M748.9 235.1 L755.6 233.3 L762.3 231.2 L768.8 228.5 L775.0 225.3 L780.8 221.4 L786.1 216.9 L790.7 211.6 L794.4 205.6 L796.9 199.1 L798.2 192.2 L798.2 185.2"/><path d="M111.4 142.7 L106.8 148.0 L101.8 152.9 L96.6 157.5 L91.1 161.9 L85.6 166.2 L80.0 170.4 L74.4 174.6 L68.8 178.8"/><path d="M306.6 209.8 L311.0 215.2 L315.4 220.7 L319.8 226.1 L324.2 231.6 L328.7 236.9 L333.4 242.2 L338.2 247.2 L343.2 252.1 L348.4 256.8 L354.0 261.0 L359.9 264.8 L366.2 267.9 L372.7 270.4"/><path d="M330.0 160.6 L336.7 158.8 L343.2 156.2 L349.4 153.0 L355.2 149.1 L360.7 144.7 L365.8 139.9 L370.7 134.9 L375.4 129.7 L380.0 124.4 L384.5 119.1 L389.1 113.8"/><path d="M351.5 178.4 L358.0 175.7 L364.1 172.3 L369.7 168.2 L375.0 163.5 L379.8 158.5 L384.3 153.1 L388.5 147.5 L392.5 141.8 L396.5 136.0 L400.4 130.2 L404.4 124.4"/><path d="M968.9 319.3 L975.8 320.1 L982.8 320.8 L989.7 321.6 L996.7 322.4 L1003.6 323.2 L1010.6 324.1 L1017.5 325.1 L1024.4 326.3 L1031.3 327.7 L1038.1 329.3 L1044.8 331.1 L1051.5 333.2 L1058.1 335.6"/><path d="M359.9 202.9 L366.7 201.3 L373.2 198.8 L379.4 195.4 L385.1 191.4 L390.3 186.8 L395.1 181.6 L399.4 176.1 L403.4 170.4 L407.0 164.4 L410.5 158.3 L413.8 152.1 L417.0 145.9 L420.3 139.8 L423.8 133.7"/><path d="M716.4 192.4 L721.4 187.5 L725.9 182.1 L729.6 176.2 L732.6 169.8 L734.7 163.2 L735.8 156.3 L736.2 149.3 L735.8 142.3 L734.8 135.4 L733.3 128.5"/><path d="M72.9 202.2 L66.3 204.5 L59.9 207.3 L53.6 210.5 L47.6 214.1 L41.9 218.1 L36.4 222.5 L31.3 227.2 L26.4 232.3 L21.9 237.6 L17.7 243.2 L13.8 249.1"/><path d="M980.6 164.5 L974.6 160.9 L968.2 158.1 L961.5 156.1 L954.6 154.7 L947.6 154.0 L940.6 153.8 L933.6 154.0 L926.6 154.4 L919.7 155.1 L912.7 155.8 L905.8 156.6 L898.8 157.3"/><path d="M334.1 306.5 L336.1 313.3 L338.3 319.9 L341.0 326.3 L344.3 332.5 L348.1 338.4 L352.7 343.7 L357.9 348.3"/><path d="M127.9 241.6 L121.7 238.4 L115.3 235.5 L108.8 233.0 L102.1 231.0 L95.3 229.4 L88.4 228.3 L81.4 227.7 L74.4 227.8 L67.4 228.5 L60.5 229.8 L53.8 231.8 L47.3 234.4 L41.1 237.6 L35.2 241.3"/><path d="M991.9 333.2 L998.7 334.6 L1005.6 336.1 L1012.4 337.6 L1019.2 339.1 L1026.0 340.8 L1032.8 342.6 L1039.5 344.5"/><path d="M316.2 142.6 L323.1 141.0 L329.7 138.7 L336.0 135.8 L342.1 132.3 L347.9 128.3 L353.4 124.0 L358.7 119.5 L363.9 114.8 L369.1 110.1"/><path d="M109.7 239.3 L103.2 236.9 L96.5 234.9 L89.6 233.5 L82.7 232.6 L75.7 232.3 L68.7 232.7 L61.8 233.7 L55.0 235.3 L48.4 237.7 L42.0 240.7 L36.0 244.2 L30.4 248.4 L25.1 253.0 L20.3 258.1"/><path d="M342.9 239.9 L348.8 243.8 L355.0 247.1 L361.4 249.9 L368.1 251.9 L375.0 253.1 L382.0 253.5 L388.9 252.9 L395.8 251.3 L402.3 248.9 L408.5 245.6"/><path d="M308.2 302.0 L306.0 308.7 L303.4 315.2 L300.4 321.5 L297.2 327.7 L293.8 333.8 L290.1 339.8 L286.3 345.7 L282.4 351.5 L278.5 357.3 L274.7 363.1 L271.0 369.1"/><path d="M731.2 310.4 L738.1 311.6 L744.9 313.1 L751.6 315.1 L758.3 317.3 L764.8 319.8 L771.2 322.6 L777.5 325.6 L783.7 328.8 L789.8 332.3 L795.8 335.9 L801.8 339.6"/><path d="M720.5 133.2 L720.3 126.2 L719.7 119.2 L718.8 112.3 L717.7 105.4"/><path d="M98.2 216.0 L91.2 215.6 L84.2 215.6 L77.2 216.2 L70.3 217.3 L63.5 218.9 L56.9 221.1 L50.4 223.8 L44.2 227.1"/><path d="M945.5 128.3 L938.7 130.2 L932.1 132.3 L925.5 134.7 L918.9 137.2 L912.4 139.7 L905.9 142.2 L899.2 144.5 L892.6 146.6 L885.8 148.4 L879.0 149.9 L872.1 151.0"/><path d="M129.1 187.2 L122.3 188.5 L115.4 189.7 L108.5 190.9 L101.6 192.2 L94.7 193.5 L87.9 195.1 L81.2 197.0 L74.5 199.1 L67.9 201.6 L61.5 204.4 L55.3 207.6 L49.3 211.3"/><path d="M972.1 245.3 L975.2 239.1 L977.6 232.5 L979.2 225.7 L979.8 218.7 L979.4 211.7 L978.0 204.8 L975.6 198.3"/><path d="M306.9 310.6 L304.5 317.1 L301.7 323.6 L298.8 329.9 L295.6 336.1 L292.2 342.3 L288.8 348.4 L285.4 354.5 L282.0 360.6 L278.8 366.9"/><path d="M314.6 165.9 L321.6 166.2 L328.6 165.8 L335.4 164.5 L342.1 162.4 L348.5 159.6 L354.6 156.1 L360.2 152.0"/><path d="M312.6 325.4 L311.3 332.2 L310.0 339.1 L308.8 346.0 L307.8 352.9 L307.2 359.9 L307.0 366.9"/><path d="M748.0 175.5 L749.6 168.6 L750.2 161.7 L749.8 154.7 L748.7 147.8 L746.9 141.0 L744.7 134.4 L742.1 127.9"/><path d="M362.4 289.9 L368.3 293.6 L374.7 296.6 L381.4 298.7 L388.3 299.7 L395.3 299.7 L402.2 298.6 L408.9 296.5 L415.2 293.6 L421.2 289.9 L426.7 285.6 L431.8 280.8 L436.5 275.6 L440.8 270.0"/><path d="M703.5 146.7 L705.7 140.1 L707.4 133.3 L708.5 126.4 L709.1 119.4 L709.4 112.4 L709.3 105.4"/></g><g stroke="#8fdcff" stroke-width="0.90" opacity="0.875"><path d="M235.7 232.4 L229.3 235.2 L222.6 237.1 L215.6 238.0 L208.6 238.1 L201.7 237.5 L194.7 236.5 L187.9 235.0 L181.1 233.2 L174.4 231.2 L167.8 229.0 L161.1 226.8 L154.5 224.5"/><path d="M861.9 250.5 L867.4 246.1 L872.1 241.0 L876.0 235.2 L878.7 228.7 L880.2 221.9 L880.3 214.9 L879.1 208.0 L876.6 201.4"/><path d="M273.5 216.3 L272.5 223.2 L270.5 229.9 L267.4 236.2 L263.4 241.9 L258.4 246.9 L252.7 250.9 L246.4 254.0"/><path d="M171.3 220.0 L164.5 218.8 L157.6 217.4 L150.7 215.9 L143.9 214.4 L137.1 213.0 L130.2 211.7 L123.3 210.5 L116.3 209.5 L109.4 208.8 L102.4 208.4 L95.4 208.4 L88.4 208.7 L81.4 209.5 L74.5 210.7"/><path d="M280.9 153.3 L287.2 156.4 L293.6 159.1 L300.3 161.3 L307.1 162.9 L314.0 163.8 L321.0 164.0 L328.0 163.5 L334.9 162.1 L341.5 159.9 L347.9 157.0 L353.9 153.4 L359.5 149.2 L364.8 144.6"/><path d="M275.5 276.1 L269.9 280.3 L263.7 283.7 L257.2 286.2 L250.4 287.8 L243.4 288.5 L236.4 288.5 L229.5 287.7 L222.6 286.2 L215.9 284.2"/><path d="M918.4 249.1 L921.9 243.1 L924.5 236.6 L926.0 229.8 L926.2 222.8 L925.2 215.8 L923.0 209.2 L919.7 203.0 L915.5 197.4 L910.6 192.4"/><path d="M164.3 270.1 L158.7 265.8 L153.2 261.5 L147.6 257.3 L141.9 253.2 L136.1 249.3 L130.2 245.6 L124.1 242.2 L117.8 239.0 L111.4 236.3 L104.8 233.9 L98.1 232.0 L91.2 230.6 L84.3 229.7 L77.3 229.4"/><path d="M798.8 234.3 L804.7 230.5 L810.1 226.0 L814.7 220.7 L818.3 214.7 L820.7 208.1 L821.8 201.2 L821.6 194.2 L820.2 187.4"/><path d="M892.4 105.4 L887.1 109.8 L881.6 114.2 L875.9 118.3 L870.1 122.2 L864.1 125.7 L857.8 128.8 L851.3 131.4 L844.6 133.4 L837.7 134.8 L830.8 135.6"/><path d="M818.2 237.5 L823.8 233.3 L828.7 228.3 L832.6 222.5 L835.5 216.1 L837.1 209.3 L837.3 202.3 L836.2 195.4 L833.9 188.8 L830.7 182.6 L826.7 176.8 L822.2 171.5"/><path d="M866.2 325.4 L872.1 329.3 L877.8 333.3 L883.6 337.3 L889.2 341.4 L894.8 345.6 L900.4 349.8 L906.0 354.1 L911.5 358.4 L917.0 362.7 L922.5 367.1 L928.0 371.4"/><path d="M839.0 185.2 L834.9 179.5 L830.2 174.3 L825.2 169.4 L819.9 164.8 L814.4 160.5 L808.8 156.3 L803.1 152.2 L797.4 148.2"/><path d="M820.5 214.6 L822.8 208.0 L823.7 201.0 L823.3 194.1 L821.7 187.2 L819.1 180.8 L815.6 174.7 L811.5 169.0 L807.0 163.7 L802.1 158.6 L797.0 153.8 L791.8 149.2 L786.5 144.6"/><path d="M284.8 293.7 L279.6 298.4 L274.0 302.5 L267.9 306.0 L261.4 308.7 L254.7 310.7 L247.8 312.0 L240.9 312.6 L233.9 312.5 L226.9 311.8 L220.0 310.5 L213.3 308.6"/><path d="M240.0 105.4 L245.8 109.2 L251.9 112.7 L258.2 115.7 L264.7 118.4 L271.4 120.5 L278.2 122.2 L285.1 123.2"/><path d="M797.9 116.7 L791.0 115.8 L784.2 114.1 L777.6 111.9 L771.1 109.2 L764.9 105.9 L759.0 102.1"/><path d="M859.9 114.9 L853.9 118.5 L847.7 121.7 L841.2 124.3 L834.5 126.4 L827.7 127.8 L820.7 128.6 L813.7 128.7"/><path d="M148.6 226.5 L142.1 224.0 L135.4 221.7 L128.8 219.7 L122.0 217.8 L115.2 216.3 L108.3 215.1 L101.3 214.2 L94.3 213.8 L87.3 213.7"/><path d="M860.2 154.0 L853.2 153.8 L846.2 153.2 L839.3 152.3 L832.4 151.0 L825.6 149.4 L818.8 147.5 L812.2 145.3 L805.7 142.8 L799.2 140.0 L792.9 137.0 L786.7 133.7 L780.7 130.2"/><path d="M300.0 155.8 L306.9 157.0 L313.9 157.4 L320.9 157.1 L327.8 156.0 L334.6 154.1 L341.0 151.4 L347.2 148.1"/><path d="M269.2 319.0 L262.9 322.1 L256.4 324.7 L249.7 326.7 L242.9 328.1 L235.9 329.0 L228.9 329.4 L221.9 329.3 L215.0 328.8 L208.0 327.8 L201.2 326.4 L194.4 324.7 L187.7 322.6"/><path d="M795.6 177.6 L793.5 171.0 L790.6 164.6 L787.0 158.6 L783.0 152.9 L778.7 147.3 L774.2 142.0 L769.5 136.8 L764.8 131.6 L760.2 126.4 L755.5 121.1 L751.0 115.8 L746.6 110.4"/><path d="M767.3 139.7 L763.0 134.1 L758.7 128.6 L754.3 123.2 L750.0 117.7 L745.8 112.1 L741.7 106.4 L737.8 100.6"/><path d="M824.5 209.0 L825.6 202.1 L825.2 195.1 L823.7 188.3 L821.1 181.8 L817.6 175.7 L813.5 170.0 L808.9 164.7 L804.1 159.7 L799.0 154.9 L793.7 150.2"/><path d="M766.8 113.8 L761.0 109.9 L755.5 105.5 L750.3 100.9"/><path d="M263.3 118.0 L269.9 120.3 L276.7 122.1 L283.6 123.3 L290.6 123.8 L297.6 123.7 L304.6 122.9 L311.4 121.5 L318.1 119.4 L324.6 116.8 L330.9 113.8 L337.0 110.4"/><path d="M165.0 112.1 L164.6 119.1 L163.7 126.0 L162.0 132.8 L159.6 139.4 L156.4 145.6 L152.5 151.4 L147.9 156.7 L142.7 161.4 L137.0 165.5 L131.0 169.2 L124.8 172.3"/><path d="M152.8 164.3 L147.2 168.5 L141.1 172.1 L134.8 175.1 L128.3 177.8 L121.7 180.1 L115.0 182.1 L108.3 184.1 L101.6 186.0 L94.9 187.9 L88.2 190.0 L81.5 192.2 L75.0 194.7 L68.6 197.4"/><path d="M803.7 106.9 L796.7 107.2 L789.8 106.7 L782.9 105.5 L776.1 103.7 L769.6 101.2"/><path d="M139.7 287.4 L134.0 283.4 L128.2 279.5 L122.3 275.8 L116.3 272.2 L110.1 268.8 L103.8 265.8 L97.3 263.1 L90.7 260.9 L83.9 259.2 L77.0 258.0 L70.0 257.6"/><path d="M214.0 305.6 L207.5 303.2 L201.1 300.4 L194.8 297.2 L188.8 293.6 L182.9 289.8 L177.2 285.8 L171.6 281.6 L166.0 277.4 L160.6 273.0 L155.1 268.6 L149.6 264.3"/><path d="M844.0 222.1 L846.1 215.4 L846.9 208.5 L846.3 201.5 L844.4 194.8 L841.5 188.4 L837.7 182.5 L833.3 177.0 L828.5 172.0 L823.3 167.3 L817.8 162.9 L812.3 158.7 L806.6 154.6 L800.9 150.5 L795.2 146.5"/><path d="M792.6 278.9 L799.4 280.7 L806.1 282.6 L812.9 284.5 L819.6 286.5 L826.3 288.5 L833.0 290.5 L839.7 292.6 L846.4 294.6 L853.0 296.7"/><path d="M215.0 237.0 L208.0 237.1 L201.0 236.6 L194.1 235.6 L187.2 234.1 L180.4 232.4 L173.7 230.4 L167.0 228.3 L160.4 226.1 L153.8 223.9 L147.1 221.7 L140.4 219.6 L133.7 217.7 L126.9 216.0 L120.1 214.5"/><path d="M922.2 259.4 L927.1 254.3 L931.3 248.7 L934.6 242.5 L936.9 235.9 L938.1 229.0 L938.2 222.0 L937.0 215.1 L934.7 208.5 L931.4 202.4 L927.1 196.8 L922.1 191.9"/><path d="M215.9 155.8 L215.5 162.8 L214.3 169.7 L212.0 176.3 L208.7 182.5 L204.4 188.0 L199.2 192.7 L193.3 196.5 L186.9 199.4"/><path d="M797.3 150.3 L791.8 146.1 L786.2 141.8 L780.7 137.5 L775.3 133.1 L769.9 128.6 L764.6 124.0 L759.5 119.3 L754.5 114.3 L749.7 109.2 L745.1 103.9"/><path d="M252.5 117.6 L258.6 120.9 L265.0 123.8 L271.5 126.2 L278.3 128.2 L285.1 129.6 L292.1 130.4 L299.1 130.5 L306.1 129.9"/><path d="M774.4 229.7 L780.6 226.5 L786.3 222.5 L791.5 217.8 L796.0 212.4 L799.4 206.3 L801.7 199.7 L802.8 192.8 L802.5 185.8 L801.1 178.9 L798.7 172.4 L795.6 166.1"/><path d="M159.1 157.8 L154.2 162.8 L148.7 167.2 L142.8 171.0 L136.6 174.2 L130.1 176.9 L123.6 179.3 L116.9 181.4"/><path d="M792.7 204.8 L795.2 198.2 L796.5 191.3 L796.5 184.3 L795.3 177.4 L793.2 170.8 L790.2 164.4 L786.7 158.4 L782.7 152.7 L778.4 147.1 L773.9 141.8"/><path d="M153.9 106.9 L153.2 113.8 L152.0 120.7 L150.0 127.4 L147.5 133.9 L144.2 140.1 L140.2 145.9 L135.7 151.2 L130.6 156.1"/><path d="M768.3 221.6 L774.0 217.6 L779.2 212.8 L783.6 207.4 L787.1 201.3 L789.5 194.8 L790.6 187.8 L790.5 180.8 L789.3 174.0 L787.1 167.3 L784.2 160.9 L780.7 154.9 L776.8 149.1 L772.6 143.5 L768.2 138.0"/><path d="M203.0 331.4 L196.2 330.2 L189.3 328.7 L182.6 326.9 L175.9 324.8 L169.2 322.6 L162.7 320.1 L156.2 317.6 L149.7 314.9 L143.3 312.1 L136.8 309.4 L130.4 306.6 L123.9 304.0"/><path d="M772.6 162.7 L770.4 156.0 L767.5 149.7 L764.1 143.5 L760.5 137.5 L756.6 131.7 L752.7 125.9 L748.7 120.2 L744.7 114.4 L740.8 108.6"/><path d="M153.6 234.5 L147.2 231.5 L140.8 228.7 L134.4 226.0 L127.8 223.6 L121.1 221.5 L114.3 219.7 L107.5 218.3 L100.6 217.2 L93.6 216.6 L86.6 216.4 L79.6 216.7 L72.7 217.6"/><path d="M136.8 149.3 L131.9 154.3 L126.6 158.9 L120.9 162.9 L114.9 166.6 L108.8 170.0 L102.6 173.2 L96.3 176.3 L89.9 179.3 L83.6 182.3 L77.4 185.4 L71.2 188.7"/><path d="M241.2 155.7 L243.7 162.2 L245.8 168.9 L247.4 175.7 L248.2 182.7 L248.2 189.7 L247.2 196.6 L245.2 203.3 L242.1 209.6 L238.0 215.2 L232.8 220.0 L227.0 223.8 L220.5 226.6 L213.8 228.4 L206.9 229.4"/><path d="M182.5 151.0 L179.6 157.3 L175.9 163.2 L171.3 168.5 L166.0 173.1 L160.1 177.0 L153.9 180.1 L147.4 182.7"/><path d="M238.0 333.0 L231.0 333.9 L224.0 334.3 L217.0 334.3 L210.0 333.9 L203.1 333.2 L196.2 332.2 L189.3 330.8"/><path d="M846.2 112.1 L839.9 115.3 L833.5 118.0 L826.8 120.0 L819.9 121.4 L812.9 122.1 L805.9 122.2 L799.0 121.6 L792.1 120.3 L785.3 118.4 L778.8 116.0 L772.4 113.1 L766.3 109.8 L760.4 106.0 L754.8 101.7"/><path d="M258.6 166.2 L262.0 172.3 L265.1 178.6 L267.8 185.0 L270.1 191.6 L271.8 198.4 L272.9 205.3 L273.3 212.3 L272.7 219.3 L271.2 226.1 L268.7 232.7 L265.2 238.7 L260.7 244.1"/><path d="M133.9 291.4 L127.9 287.7 L121.9 284.2 L115.8 280.8 L109.6 277.6 L103.2 274.7 L96.7 272.1 L90.0 270.0 L83.2 268.4 L76.3 267.4 L69.3 267.0"/><path d="M134.3 209.3 L127.3 208.3 L120.4 207.5 L113.4 206.8 L106.4 206.5 L99.4 206.4 L92.4 206.7 L85.5 207.3 L78.5 208.4 L71.7 209.9 L65.0 211.8"/><path d="M790.9 315.9 L797.0 319.5 L802.9 323.2 L808.7 327.1 L814.4 331.2 L820.0 335.4 L825.5 339.7 L830.9 344.1 L836.3 348.6 L841.6 353.2 L846.8 357.8"/><path d="M903.5 330.2 L909.6 333.4 L915.8 336.8 L922.0 340.1 L928.1 343.4 L934.3 346.8 L940.4 350.1 L946.6 353.4 L952.8 356.7 L959.0 359.9"/><path d="M183.6 301.7 L177.7 298.0 L171.9 294.1 L166.2 290.0 L160.6 285.8 L155.1 281.5 L149.6 277.2 L144.0 272.9 L138.5 268.6 L132.8 264.5 L127.1 260.5 L121.2 256.7"/><path d="M828.6 148.8 L821.8 147.2 L815.1 145.3 L808.5 143.1 L801.9 140.5 L795.5 137.7 L789.3 134.6 L783.1 131.2 L777.2 127.5 L771.3 123.7 L765.7 119.5"/><path d="M269.1 284.6 L262.8 287.7 L256.2 290.0 L249.3 291.4 L242.4 291.9 L235.4 291.7 L228.4 290.8 L221.6 289.2 L214.9 287.1"/><path d="M819.3 150.2 L812.8 147.7 L806.4 145.0 L800.0 142.0 L793.8 138.8 L787.6 135.5 L781.6 131.8 L775.8 128.0 L770.1 124.0 L764.5 119.7 L759.2 115.2 L754.0 110.5"/><path d="M886.4 180.0 L880.1 177.0 L873.6 174.2 L867.1 171.6 L860.6 169.1 L854.0 166.7 L847.5 164.3 L840.9 161.9"/><path d="M911.6 297.0 L918.6 297.1 L925.6 296.9 L932.6 296.5 L939.6 295.8 L946.5 294.9 L953.4 293.7 L960.3 292.3 L967.1 290.7 L973.8 288.9 L980.5 286.9 L987.2 284.7 L993.8 282.4 L1000.4 280.0 L1007.0 277.6"/><path d="M910.6 252.2 L914.8 246.6 L918.1 240.4 L920.3 233.8 L921.3 226.8 L921.1 219.8 L919.6 213.0 L917.0 206.5 L913.3 200.6 L908.8 195.2 L903.7 190.4 L898.1 186.2 L892.1 182.5"/><path d="M856.0 145.0 L849.0 145.8 L842.0 146.0 L835.0 145.8 L828.1 145.1 L821.2 143.9 L814.3 142.4 L807.6 140.4 L801.0 138.1 L794.5 135.4"/><path d="M272.3 107.7 L279.2 108.6 L286.2 109.0 L293.2 108.7 L300.2 107.8 L307.0 106.4 L313.7 104.5 L320.3 102.1"/><path d="M229.0 160.8 L229.5 167.8 L229.2 174.8 L227.9 181.7 L225.5 188.3 L222.1 194.4 L217.6 199.8 L212.3 204.3 L206.3 207.9 L199.8 210.5"/><path d="M862.7 322.7 L868.6 326.5 L874.4 330.4 L880.2 334.4 L885.9 338.4 L891.5 342.5 L897.2 346.7 L902.7 350.9 L908.3 355.2 L913.8 359.5 L919.3 363.8 L924.9 368.1"/><path d="M151.2 165.2 L145.4 169.3 L139.3 172.7 L133.0 175.7 L126.5 178.2 L119.8 180.5 L113.1 182.5 L106.4 184.4 L99.7 186.4 L93.0 188.3"/><path d="M829.9 272.5 L836.9 272.6 L843.9 272.5 L850.9 272.0 L857.8 271.2 L864.7 270.0 L871.5 268.3 L878.1 266.0 L884.5 263.2 L890.6 259.7 L896.2 255.5"/><path d="M807.8 221.3 L811.9 215.6 L814.9 209.3 L816.7 202.5 L817.1 195.6 L816.2 188.6 L814.2 181.9 L811.3 175.6 L807.6 169.6 L803.4 164.0 L798.8 158.7 L793.9 153.7 L788.9 148.8 L783.8 144.0"/><path d="M224.7 165.9 L224.0 172.9 L222.4 179.7 L219.7 186.1 L216.0 192.0 L211.2 197.2 L205.7 201.5 L199.5 204.8"/><path d="M132.6 136.4 L128.7 142.1 L124.2 147.5 L119.2 152.5 L113.9 157.0 L108.3 161.2 L102.5 165.2 L96.6 168.9 L90.6 172.5"/><path d="M264.0 166.1 L267.9 171.9 L271.7 177.7 L275.4 183.7 L278.7 189.9 L281.8 196.2 L284.6 202.6 L286.9 209.2 L288.7 215.9 L290.0 222.8 L290.7 229.8"/><path d="M782.8 325.1 L788.9 328.5 L794.9 332.1 L800.8 335.8 L806.6 339.7 L812.3 343.8 L818.0 347.9 L823.5 352.2 L829.0 356.5 L834.4 361.0 L839.8 365.5 L845.1 370.0"/><path d="M131.6 140.5 L127.2 146.0 L122.4 151.1 L117.2 155.8 L111.7 160.1 L105.9 164.0 L100.0 167.8 L94.0 171.4"/></g><g stroke="#68b9f2" stroke-width="0.90" opacity="0.625"><path d="M1056.6 260.6 L1063.6 260.7 L1070.6 261.5 L1077.4 263.2 L1083.9 265.8 L1089.9 269.2 L1095.5 273.5 L1100.5 278.4 L1104.9 283.8 L1108.8 289.6 L1112.2 295.7 L1115.3 302.0"/><path d="M430.5 135.2 L434.1 129.2 L438.1 123.4 L442.4 117.9 L447.1 112.7 L452.3 108.0 L457.8 103.8 L463.8 100.1"/><path d="M18.4 212.9 L15.6 219.3 L12.8 225.7 L10.2 232.2 L7.6 238.7 L5.1 245.2 L2.7 251.8 L0.5 258.5"/><path d="M1051.3 273.8 L1058.3 274.2 L1065.2 275.3 L1072.0 277.2 L1078.4 279.8 L1084.6 283.2 L1090.2 287.3 L1095.5 292.0 L1100.2 297.1 L1104.5 302.7 L1108.4 308.5 L1112.0 314.4 L1115.5 320.6 L1118.7 326.7"/><path d="M412.3 162.3 L415.5 156.1 L418.7 149.9 L421.9 143.7 L425.2 137.5 L428.7 131.4 L432.5 125.6 L436.6 119.9 L441.2 114.6 L446.1 109.6"/><path d="M1071.7 284.0 L1078.1 286.9 L1084.1 290.4 L1089.7 294.6 L1094.9 299.3 L1099.6 304.5 L1104.0 309.9 L1108.1 315.6 L1111.9 321.5 L1115.5 327.5 L1119.1 333.5 L1122.6 339.5 L1126.2 345.6 L1129.8 351.5"/><path d="M429.5 146.4 L432.7 140.2 L436.1 134.0 L439.7 128.1 L443.8 122.4 L448.2 117.0 L453.1 111.9 L458.4 107.4 L464.2 103.4"/><path d="M22.4 291.3 L18.2 296.9 L14.6 302.9 L11.6 309.3 L9.3 315.9 L7.6 322.7 L6.6 329.6 L6.3 336.6"/><path d="M642.7 258.9 L649.0 255.8 L655.5 253.1 L662.1 250.8 L668.8 248.8 L675.6 247.1 L682.4 245.6 L689.3 244.3 L696.2 243.2 L703.1 242.1 L710.1 241.2 L717.0 240.3 L724.0 239.3"/><path d="M434.5 229.6 L438.2 223.7 L441.6 217.5 L444.7 211.3 L447.6 204.9 L450.2 198.4 L452.7 191.8 L455.1 185.3 L457.4 178.7 L459.8 172.1 L462.3 165.5 L464.9 159.0 L467.7 152.6 L470.8 146.4 L474.3 140.3"/><path d="M399.1 268.7 L405.8 266.6 L412.1 263.6 L418.0 259.8 L423.5 255.5 L428.5 250.6 L433.1 245.3 L437.3 239.7 L441.1 233.8 L444.5 227.7 L447.7 221.5 L450.6 215.1 L453.3 208.7 L455.9 202.1"/><path d="M1059.3 120.2 L1061.3 113.5 L1063.8 106.9 L1066.7 100.5"/></g><g stroke="#5195e0" stroke-width="2.00" opacity="0.625"><path d="M1083.9 162.9 L1090.0 159.5 L1096.5 157.0 L1103.3 155.3 L1110.3 154.7 L1117.3 155.2 L1124.0 156.9 L1130.5 159.7 L1136.3 163.6 L1141.4 168.3 L1145.8 173.8"/><path d="M459.2 265.1 L462.0 258.7 L464.6 252.2 L467.2 245.7 L469.6 239.1 L471.9 232.5 L474.2 225.9 L476.4 219.2 L478.6 212.6 L480.7 205.9 L482.9 199.3 L485.1 192.6 L487.3 186.0 L489.8 179.4"/><path d="M1087.7 119.7 L1093.5 115.8 L1099.8 112.7 L1106.4 110.6 L1113.4 109.5 L1120.4 109.5 L1127.3 110.5 L1134.0 112.4 L1140.4 115.3"/><path d="M1086.3 129.8 L1092.0 125.8 L1098.2 122.5 L1104.8 120.2 L1111.6 118.8 L1118.6 118.5 L1125.6 119.3 L1132.4 121.1 L1138.8 123.9 L1144.8 127.5"/><path d="M1082.2 172.9 L1088.4 169.8 L1095.1 167.5 L1101.9 166.2 L1108.9 165.9 L1115.9 166.8 L1122.5 168.9 L1128.8 172.1 L1134.3 176.4 L1139.1 181.5 L1143.0 187.3 L1146.1 193.6 L1148.2 200.2"/><path d="M1097.7 316.9 L1102.4 322.1 L1106.8 327.5 L1111.1 333.0 L1115.2 338.7 L1119.3 344.4 L1123.4 350.0 L1127.6 355.7 L1131.8 361.3 L1136.1 366.8"/></g><g stroke="#68b9f2" stroke-width="1.45" opacity="0.625"><path d="M656.1 293.3 L662.2 289.8 L668.6 286.9 L675.2 284.7 L682.0 283.0 L688.9 281.7 L695.8 281.0 L702.8 280.7 L709.8 280.8 L716.8 281.2 L723.8 282.0 L730.7 283.1"/><path d="M629.5 195.6 L635.3 191.7 L641.1 187.8 L646.9 183.9 L652.7 179.9 L658.3 175.7 L663.8 171.4 L669.0 166.7 L674.0 161.9 L678.7 156.6 L683.0 151.1 L686.8 145.3"/><path d="M436.5 131.4 L440.4 125.5 L444.6 119.9 L449.2 114.7 L454.3 109.8 L459.7 105.5 L465.6 101.7"/><path d="M399.7 131.1 L403.7 125.4 L407.9 119.7 L412.3 114.3 L417.0 109.1 L422.0 104.2"/><path d="M441.4 277.9 L445.3 272.1 L449.0 266.1 L452.4 260.0 L455.5 253.8 L458.5 247.4 L461.3 241.0 L464.0 234.5"/><path d="M440.9 207.4 L443.9 201.0 L446.6 194.6 L449.1 188.0 L451.5 181.5 L453.9 174.9 L456.4 168.3 L458.9 161.8"/><path d="M639.4 250.6 L645.6 247.5 L652.1 244.7 L658.6 242.2 L665.2 239.9 L671.9 237.9 L678.7 236.1 L685.5 234.3 L692.3 232.7 L699.1 231.1 L705.9 229.4 L712.7 227.7 L719.4 225.8 L726.1 223.7"/><path d="M1044.7 163.1 L1045.7 156.2 L1046.5 149.2 L1047.0 142.3 L1047.3 135.3 L1047.5 128.3 L1047.7 121.3 L1047.8 114.3 L1048.0 107.3 L1048.3 100.3"/><path d="M29.2 122.5 L29.8 129.4 L30.1 136.4 L30.2 143.4 L29.9 150.4 L29.3 157.4 L28.3 164.3 L27.1 171.2 L25.7 178.1 L24.0 184.9"/></g><g stroke="#5195e0" stroke-width="2.00" opacity="0.500"><path d="M474.2 211.8 L476.4 205.2 L478.5 198.5 L480.7 191.9 L483.0 185.2 L485.4 178.7 L487.9 172.1 L490.6 165.7 L493.6 159.4"/><path d="M472.9 122.9 L477.9 117.9 L483.2 113.4 L489.0 109.5 L495.1 106.0 L501.5 103.2 L508.1 100.8"/><path d="M489.4 113.2 L495.3 109.4 L501.5 106.2 L507.9 103.5 L514.6 101.2"/><path d="M562.9 322.3 L560.9 315.6 L559.5 308.7 L558.7 301.8 L558.6 294.8 L559.0 287.8 L560.0 280.9 L561.6 274.0 L563.6 267.3 L566.1 260.8 L569.0 254.4 L572.3 248.2 L576.0 242.3"/><path d="M1099.8 284.2 L1104.2 289.7 L1108.1 295.5 L1111.6 301.5 L1114.8 307.8 L1117.8 314.1 L1120.6 320.5 L1123.4 326.9"/><path d="M563.9 137.4 L569.7 133.4 L575.6 129.7 L581.6 126.2 L587.8 122.9 L594.1 119.8 L600.4 116.7 L606.7 113.7 L613.0 110.7 L619.3 107.7 L625.6 104.5 L631.7 101.2"/></g><g stroke="#8fdcff" stroke-width="0.90" opacity="0.750"><path d="M730.5 121.4 L728.5 114.7 L726.3 108.1 L724.2 101.4"/><path d="M729.0 163.8 L730.7 157.0 L731.6 150.0 L731.7 143.0 L731.2 136.0 L730.1 129.1 L728.6 122.3 L726.9 115.5 L725.0 108.8 L723.0 102.1"/><path d="M693.3 215.2 L699.7 212.6 L706.1 209.6 L712.3 206.4 L718.3 202.8 L723.9 198.7 L729.2 194.0 L733.9 188.8 L737.9 183.1 L741.1 176.8 L743.3 170.2 L744.6 163.3 L744.9 156.3 L744.5 149.4"/><path d="M714.8 205.6 L720.7 201.9 L726.3 197.6 L731.4 192.8 L735.9 187.4 L739.6 181.5 L742.5 175.1 L744.4 168.4 L745.4 161.5"/><path d="M732.8 309.2 L739.7 310.5 L746.5 312.2 L753.2 314.2 L759.8 316.6 L766.3 319.2 L772.6 322.0 L778.9 325.1 L785.1 328.4 L791.2 331.8 L797.2 335.5 L803.0 339.3 L808.8 343.2 L814.5 347.3"/><path d="M976.5 131.7 L969.6 130.6 L962.6 130.3 L955.6 130.7 L948.7 131.6 L941.8 133.1 L935.1 134.9 L928.4 137.0 L921.7 139.2 L915.1 141.5"/><path d="M120.2 248.7 L114.0 245.4 L107.6 242.5 L101.1 240.1 L94.4 238.1 L87.5 236.7 L80.6 235.8 L73.6 235.5 L66.6 235.9 L59.7 237.0 L52.9 238.8 L46.4 241.2 L40.1 244.3"/><path d="M335.3 113.2 L341.2 109.5 L347.1 105.7 L352.9 101.7"/><path d="M347.9 213.4 L354.8 214.2 L361.8 214.2 L368.8 213.3 L375.5 211.5 L382.0 208.8 L388.1 205.3 L393.7 201.1 L398.8 196.4 L403.5 191.1 L407.7 185.5 L411.5 179.7 L415.0 173.6 L418.2 167.4"/><path d="M749.8 168.6 L750.3 161.7 L750.0 154.7 L748.8 147.8 L747.0 141.0 L744.8 134.4 L742.2 127.9 L739.3 121.5 L736.4 115.1 L733.4 108.8 L730.5 102.4"/><path d="M64.8 239.3 L57.9 240.5 L51.2 242.3 L44.6 244.8 L38.4 248.0 L32.5 251.8 L27.1 256.2 L22.0 261.1 L17.4 266.3 L13.3 272.0 L9.6 277.9 L6.4 284.2 L3.7 290.6 L1.4 297.2"/><path d="M358.8 235.3 L365.7 236.5 L372.6 237.0 L379.6 236.6 L386.5 235.2 L393.1 232.9 L399.4 229.8 L405.2 225.9 L410.6 221.4 L415.5 216.4 L419.9 211.0 L423.9 205.2 L427.5 199.2 L430.7 193.0 L433.7 186.7"/><path d="M989.8 335.8 L996.6 337.3 L1003.5 338.9 L1010.3 340.5 L1017.1 342.1 L1023.9 343.9 L1030.6 345.7 L1037.4 347.6 L1044.1 349.6 L1050.7 351.8 L1057.3 354.0 L1063.9 356.5 L1070.4 359.1 L1076.9 361.8 L1083.3 364.6"/><path d="M950.6 192.0 L945.5 187.3 L939.8 183.2 L933.6 179.8 L927.2 177.0 L920.6 174.8 L913.8 172.9 L907.0 171.3 L900.1 170.0 L893.3 168.8 L886.3 167.6"/><path d="M943.9 169.4 L937.1 167.6 L930.2 166.3 L923.3 165.4 L916.3 164.8 L909.3 164.4 L902.3 164.0 L895.3 163.7 L888.3 163.4 L881.4 162.9 L874.4 162.3 L867.4 161.6 L860.5 160.6 L853.6 159.5 L846.7 158.1"/><path d="M84.8 275.8 L77.9 274.7 L70.9 274.3 L63.9 274.6 L57.0 275.6 L50.2 277.4 L43.7 280.0 L37.6 283.3 L31.9 287.4 L26.7 292.1 L22.1 297.4 L18.1 303.1 L14.8 309.3 L12.2 315.8 L10.2 322.5"/><path d="M721.2 172.9 L724.4 166.6 L726.7 160.0 L728.2 153.2 L729.0 146.2 L729.0 139.2 L728.4 132.3 L727.3 125.4"/><path d="M367.7 173.7 L373.3 169.4 L378.4 164.6 L383.1 159.4 L387.4 154.0 L391.5 148.3 L395.4 142.5 L399.3 136.6 L403.1 130.7 L407.0 125.0 L411.2 119.3 L415.6 113.9"/><path d="M354.1 106.8 L359.7 102.6"/><path d="M948.7 212.2 L946.1 205.7 L942.5 199.7 L938.0 194.3 L932.9 189.6 L927.2 185.5 L921.1 182.1 L914.7 179.1 L908.2 176.7 L901.5 174.5 L894.8 172.7 L888.0 171.0"/><path d="M311.7 328.0 L310.2 334.8 L308.9 341.7 L307.7 348.6 L306.7 355.5 L306.1 362.5 L306.0 369.5"/><path d="M754.5 266.8 L761.4 267.9 L768.3 269.1 L775.2 270.3 L782.1 271.6 L788.9 272.9 L795.8 274.2 L802.7 275.6 L809.6 276.9"/><path d="M985.5 226.4 L986.6 219.5 L986.8 212.5 L986.0 205.6 L984.2 198.8 L981.4 192.4 L977.7 186.5 L973.2 181.1 L967.9 176.6 L962.0 172.7 L955.7 169.6 L949.2 167.3 L942.4 165.5 L935.5 164.3"/><path d="M721.5 217.8 L727.9 214.9 L734.1 211.7 L740.0 207.9 L745.4 203.5 L750.3 198.5 L754.5 192.9 L757.8 186.7 L760.1 180.1 L761.3 173.2 L761.5 166.2 L760.7 159.2 L759.1 152.4 L756.8 145.8"/><path d="M758.1 280.1 L764.8 282.0 L771.5 284.1 L778.1 286.3 L784.7 288.7 L791.2 291.3 L797.7 294.0 L804.1 296.9 L810.4 299.9 L816.6 303.0 L822.8 306.3"/><path d="M982.3 225.6 L983.1 218.6 L982.9 211.6 L981.7 204.7 L979.5 198.1 L976.4 191.9 L972.3 186.2 L967.4 181.2 L961.8 176.9 L955.8 173.4"/><path d="M361.5 121.9 L366.6 117.1 L371.7 112.3 L376.7 107.5 L381.9 102.8"/><path d="M351.1 189.2 L357.9 187.4 L364.4 184.8 L370.5 181.3 L376.2 177.2 L381.4 172.6 L386.1 167.4 L390.5 162.0 L394.6 156.3 L398.4 150.4 L402.1 144.5 L405.7 138.5 L409.4 132.5 L413.2 126.6 L417.2 120.9"/><path d="M990.8 210.0 L989.9 203.0 L988.1 196.3 L985.3 189.8 L981.6 183.9 L977.0 178.6 L971.7 174.0 L965.9 170.2 L959.6 167.2 L953.0 164.8 L946.2 163.1 L939.3 162.0 L932.3 161.4"/><path d="M696.1 301.8 L703.1 300.9 L710.1 300.5 L717.1 300.7 L724.0 301.3 L731.0 302.3 L737.8 303.6 L744.6 305.4 L751.3 307.4"/><path d="M320.4 308.7 L320.0 315.6 L319.7 322.6 L319.4 329.6 L319.2 336.6 L319.3 343.6 L319.8 350.6 L320.8 357.5 L322.4 364.4 L324.8 371.0"/><path d="M987.1 176.9 L982.3 171.8 L976.8 167.5 L970.8 163.9 L964.3 161.1 L957.6 159.1 L950.8 157.7 L943.8 157.0 L936.8 156.6 L929.8 156.7 L922.8 157.0 L915.9 157.4 L908.9 158.0 L901.9 158.5"/><path d="M129.6 331.2 L122.6 331.1 L115.6 331.4 L108.6 332.1 L101.7 333.5 L95.1 335.6 L88.7 338.4 L82.7 342.1 L77.4 346.7 L72.8 352.0 L69.2 358.0 L66.8 364.5 L65.5 371.4"/><path d="M959.8 220.8 L958.9 213.9 L956.8 207.2 L953.7 200.9 L949.7 195.2 L944.9 190.1 L939.4 185.8 L933.5 182.1 L927.2 179.0 L920.7 176.4 L914.0 174.3 L907.2 172.6 L900.4 171.0"/><path d="M734.9 259.5 L741.9 260.0 L748.9 260.5 L755.9 261.2 L762.8 261.8 L769.8 262.5 L776.8 263.1 L783.7 263.7 L790.7 264.2 L797.7 264.6 L804.7 264.8 L811.7 264.9"/><path d="M990.9 141.7 L984.6 138.7 L978.0 136.4 L971.1 135.0 L964.1 134.3 L957.1 134.3 L950.2 135.0 L943.3 136.1 L936.4 137.6"/><path d="M107.1 118.1 L104.0 124.4 L100.6 130.5 L96.8 136.4 L92.7 142.0 L88.3 147.5 L83.7 152.7 L78.9 157.8 L74.0 162.8 L69.0 167.8 L64.0 172.7 L59.0 177.6"/><path d="M750.3 281.1 L757.1 282.9 L763.8 285.0 L770.4 287.2 L777.0 289.6 L783.5 292.2 L789.9 294.9 L796.3 297.8 L802.6 300.9 L808.8 304.1 L814.9 307.5 L821.0 311.0 L826.9 314.7 L832.8 318.5"/><path d="M314.6 275.5 L314.3 282.5 L313.6 289.4 L312.4 296.3 L311.0 303.2 L309.1 309.9 L307.0 316.6 L304.6 323.2"/><path d="M66.4 335.2 L61.4 340.1 L57.3 345.8 L54.2 352.0 L52.1 358.7 L51.1 365.6"/><path d="M69.8 215.9 L63.1 217.7 L56.4 220.0 L50.0 222.8 L43.9 226.2 L38.1 230.1 L32.5 234.4 L27.4 239.1 L22.6 244.2 L18.1 249.6 L14.1 255.3 L10.4 261.2"/><path d="M700.4 237.8 L707.3 236.5 L714.2 235.3 L721.0 234.0 L727.9 232.5 L734.7 230.9 L741.4 229.0 L748.1 226.8"/><path d="M64.4 252.3 L57.4 253.1 L50.6 254.8 L44.1 257.1 L37.8 260.2 L31.9 264.0 L26.4 268.3 L21.4 273.2 L16.9 278.6 L12.9 284.3 L9.5 290.4 L6.5 296.8"/><path d="M71.6 292.5 L64.6 293.4 L57.8 295.1 L51.3 297.6 L45.1 300.9 L39.4 304.9 L34.3 309.7 L29.9 315.1 L26.1 321.0"/><path d="M975.5 234.0 L977.2 227.2 L977.9 220.3 L977.7 213.3 L976.4 206.4 L974.1 199.8 L970.8 193.6 L966.6 188.0 L961.6 183.1 L956.0 178.9 L949.9 175.5"/><path d="M1000.5 126.6 L994.5 122.9 L988.2 120.0 L981.5 117.9 L974.6 116.6 L967.6 116.1 L960.6 116.3 L953.7 117.3 L946.9 118.9 L940.2 121.0 L933.7 123.5 L927.2 126.2 L920.9 129.1 L914.6 132.2"/><path d="M983.1 313.2 L990.1 313.4 L997.1 313.6 L1004.1 313.9 L1011.1 314.3 L1018.0 314.9 L1025.0 315.6 L1031.9 316.6 L1038.8 317.9 L1045.6 319.5 L1052.4 321.5 L1059.0 323.8 L1065.4 326.5"/><path d="M700.8 292.4 L707.7 292.2 L714.7 292.4 L721.7 293.1 L728.6 294.1 L735.5 295.4 L742.3 297.1 L749.0 299.0"/><path d="M726.3 332.9 L733.3 332.5 L740.3 332.8 L747.3 333.5 L754.2 334.8 L760.9 336.5 L767.6 338.6 L774.2 341.0 L780.7 343.6 L787.0 346.6"/><path d="M98.4 307.5 L91.4 307.0 L84.4 307.0 L77.5 307.7 L70.6 309.2 L64.0 311.3 L57.6 314.4 L51.8 318.2"/><path d="M81.5 271.8 L74.5 271.0 L67.5 270.8 L60.6 271.4 L53.7 272.7 L47.0 274.8 L40.6 277.7 L34.6 281.3 L29.1 285.6 L24.1 290.5 L19.7 295.9"/><path d="M743.5 162.8 L743.9 155.8 L743.4 148.8 L742.3 141.9 L740.6 135.1 L738.5 128.4 L736.1 121.9 L733.5 115.4 L730.8 108.9"/><path d="M367.0 255.1 L373.8 256.7 L380.8 257.4 L387.8 257.2 L394.7 256.0 L401.3 253.9 L407.7 250.9 L413.6 247.2 L419.1 242.9"/><path d="M964.1 121.1 L957.1 121.6 L950.2 122.8 L943.5 124.5 L936.8 126.6 L930.2 129.1 L923.8 131.8 L917.3 134.5 L910.9 137.3 L904.4 139.9 L897.9 142.5 L891.3 144.8 L884.6 146.8 L877.8 148.4"/><path d="M989.1 146.7 L982.8 143.6 L976.2 141.2 L969.4 139.7 L962.4 139.0 L955.4 138.9 L948.4 139.4 L941.5 140.4 L934.6 141.7 L927.8 143.3 L921.0 145.0 L914.2 146.8"/><path d="M698.1 179.4 L702.9 174.2 L707.1 168.6 L710.7 162.6 L713.6 156.3 L715.8 149.6 L717.3 142.8 L718.1 135.9 L718.4 128.9 L718.1 121.9 L717.5 114.9"/><path d="M692.5 127.7 L694.7 121.1 L696.5 114.3 L697.9 107.5 L699.0 100.6"/><path d="M79.9 242.7 L72.9 242.3 L65.9 242.5 L58.9 243.5 L52.1 245.1 L45.6 247.5 L39.2 250.5 L33.3 254.2 L27.7 258.4 L22.6 263.2 L18.0 268.4 L13.8 274.0 L10.1 280.0"/><path d="M332.7 286.2 L334.9 292.8 L337.2 299.4 L339.7 306.0 L342.5 312.4 L345.8 318.6 L349.6 324.4 L354.0 329.9 L359.1 334.7 L364.8 338.8 L371.1 341.8 L377.8 343.8"/></g><g stroke="#5195e0" stroke-width="1.45" opacity="0.500"><path d="M592.6 279.8 L595.9 273.6 L599.7 267.7 L604.0 262.2 L608.8 257.0 L613.8 252.2 L619.2 247.8 L624.9 243.6 L630.8 239.9 L636.9 236.4"/><path d="M492.9 329.4 L490.9 322.7 L489.5 315.8 L488.7 308.9 L488.4 301.9 L488.5 294.9 L489.0 287.9 L489.8 280.9 L490.8 274.0"/><path d="M1105.4 114.0 L1112.3 112.8 L1119.3 112.6 L1126.2 113.4 L1133.0 115.2 L1139.4 118.0 L1145.4 121.5 L1151.0 125.8"/><path d="M486.7 225.0 L488.8 218.3 L490.9 211.6 L493.0 205.0 L495.2 198.3 L497.6 191.7 L500.0 185.2 L502.7 178.7"/><path d="M1129.6 168.2 L1135.2 172.4 L1140.1 177.4 L1144.1 183.1 L1147.2 189.4 L1149.5 196.0 L1151.0 202.8 L1151.8 209.8 L1152.0 216.8 L1151.6 223.8 L1150.9 230.7 L1149.9 237.7 L1148.7 244.6 L1147.4 251.4 L1146.0 258.3"/><path d="M1132.4 291.8 L1132.9 298.8 L1133.4 305.8 L1134.1 312.7 L1135.0 319.7 L1136.2 326.6 L1137.6 333.4 L1139.4 340.2"/><path d="M1098.9 297.2 L1103.3 302.7 L1107.3 308.4 L1111.1 314.3 L1114.6 320.4 L1117.9 326.5 L1121.2 332.7 L1124.5 338.8 L1127.9 345.0 L1131.4 351.1 L1135.0 357.1 L1138.8 362.9 L1142.7 368.7"/><path d="M580.6 112.5 L587.1 110.1 L593.7 107.8 L600.4 105.5 L607.0 103.2 L613.6 100.8"/><path d="M583.6 189.6 L588.6 184.6 L593.7 179.8 L598.9 175.2 L604.3 170.7 L609.8 166.3 L615.3 162.0 L620.8 157.7 L626.3 153.4 L631.8 149.1 L637.3 144.7 L642.6 140.2 L647.8 135.5"/><path d="M1198.3 211.2 L1192.8 215.6 L1187.5 220.2 L1182.5 225.0 L1177.7 230.1 L1173.1 235.4 L1168.9 241.0 L1164.9 246.7 L1161.2 252.7 L1157.9 258.8 L1154.8 265.1 L1152.1 271.6 L1149.7 278.1"/><path d="M1194.1 263.1 L1187.6 265.6 L1181.5 269.0 L1175.7 273.0 L1170.5 277.7 L1165.8 282.9 L1161.7 288.5 L1158.2 294.6 L1155.3 300.9 L1153.0 307.5 L1151.2 314.3 L1150.1 321.2 L1149.5 328.2 L1149.5 335.2"/><path d="M588.3 307.7 L589.1 300.8 L590.6 293.9 L592.8 287.3 L595.6 280.9 L599.0 274.7 L603.0 269.0 L607.4 263.5 L612.2 258.5 L617.4 253.8"/></g><g stroke="#68b9f2" stroke-width="2.00" opacity="0.750"><path d="M1002.8 242.1 L1006.9 236.4 L1010.6 230.5 L1013.9 224.3 L1016.8 217.9 L1019.3 211.4 L1021.3 204.7 L1022.7 197.8 L1023.6 190.9 L1023.9 183.9 L1023.5 176.9 L1022.4 170.0 L1020.6 163.2 L1018.1 156.7"/><path d="M391.2 308.3 L398.2 307.8 L405.0 306.3 L411.5 303.8 L417.7 300.4 L423.4 296.4 L428.7 291.9 L433.6 286.9 L438.2 281.5 L442.4 275.9 L446.2 270.1 L449.8 264.1 L453.2 257.9"/><path d="M376.1 128.4 L380.6 123.1 L385.2 117.8 L389.9 112.6 L394.7 107.5 L399.8 102.7"/><path d="M675.7 192.1 L681.5 188.2 L687.1 184.0 L692.4 179.4 L697.3 174.4 L701.8 169.0 L705.7 163.2 L709.0 157.1 L711.6 150.6"/><path d="M377.1 194.5 L382.9 190.6 L388.3 186.1 L393.1 181.0 L397.5 175.6 L401.6 169.9 L405.3 163.9 L408.8 157.9 L412.1 151.7 L415.4 145.5 L418.8 139.4 L422.2 133.3 L425.9 127.4 L429.9 121.6 L434.3 116.1"/><path d="M35.8 276.2 L30.1 280.2 L24.9 284.9 L20.3 290.2 L16.2 295.9 L12.8 302.0 L9.9 308.4 L7.8 315.0 L6.2 321.9 L5.3 328.8 L5.0 335.8 L5.3 342.8 L6.3 349.7 L7.8 356.5"/><path d="M689.0 206.0 L695.2 202.8 L701.3 199.2 L707.1 195.3 L712.5 190.9 L717.6 186.0 L722.1 180.7 L725.9 174.8"/><path d="M667.2 141.3 L671.5 135.8 L675.5 130.0 L679.1 124.0 L682.3 117.7 L685.1 111.3 L687.6 104.8"/><path d="M1026.6 230.2 L1031.1 224.9 L1035.6 219.5 L1040.0 214.1 L1044.5 208.7 L1048.9 203.3 L1053.4 197.9 L1058.0 192.7 L1062.9 187.6 L1067.9 182.7 L1073.2 178.2"/><path d="M1020.1 238.8 L1024.9 233.7 L1029.7 228.5 L1034.3 223.3 L1038.9 218.0 L1043.5 212.8 L1048.2 207.5 L1052.9 202.4 L1057.8 197.4 L1062.9 192.5 L1068.2 188.0 L1073.8 183.8 L1079.8 180.2 L1086.1 177.1"/><path d="M54.5 217.2 L48.2 220.4 L42.3 224.1 L36.6 228.2 L31.2 232.7 L26.2 237.6 L21.6 242.8 L17.3 248.3 L13.3 254.1 L9.7 260.1"/><path d="M676.5 192.5 L682.4 188.6 L688.0 184.4 L693.3 179.8 L698.2 174.8 L702.7 169.4 L706.6 163.6 L709.8 157.4"/><path d="M1024.9 179.9 L1024.3 172.9 L1023.0 166.0 L1020.9 159.3 L1018.2 152.9 L1014.8 146.8 L1010.6 141.2 L1005.8 136.1 L1000.5 131.6 L994.6 127.8 L988.3 124.8 L981.6 122.6 L974.8 121.2 L967.8 120.6 L960.8 120.8"/><path d="M40.6 278.4 L34.6 282.0 L29.1 286.3 L24.1 291.3 L19.7 296.7 L16.0 302.6 L12.8 308.9 L10.4 315.4 L8.6 322.2 L7.4 329.1"/></g><g stroke="#5195e0" stroke-width="1.45" opacity="0.625"><path d="M614.5 194.5 L620.1 190.3 L625.8 186.1 L631.5 182.1 L637.2 178.0 L642.8 173.8 L648.4 169.6 L653.8 165.2 L659.1 160.6 L664.1 155.7 L668.9 150.6 L673.4 145.2"/><path d="M1089.4 250.7 L1095.5 254.1 L1101.0 258.3 L1105.9 263.4 L1110.1 269.0 L1113.6 275.0 L1116.6 281.4 L1119.1 287.9 L1121.3 294.5 L1123.3 301.3 L1125.1 308.0 L1126.9 314.8 L1128.8 321.5"/><path d="M458.3 235.8 L461.0 229.4 L463.6 222.8 L466.0 216.3 L468.3 209.7 L470.5 203.0 L472.7 196.4 L474.9 189.7 L477.2 183.1"/><path d="M465.7 148.3 L469.0 142.1 L472.6 136.1 L476.7 130.4 L481.2 125.1 L486.1 120.1 L491.5 115.7 L497.3 111.7"/><path d="M1081.1 199.1 L1087.9 197.6 L1094.9 197.1 L1101.9 197.7 L1108.6 199.6 L1115.0 202.6 L1120.6 206.6 L1125.5 211.7 L1129.5 217.4 L1132.6 223.7 L1134.9 230.3 L1136.4 237.1 L1137.3 244.1 L1137.8 251.1"/><path d="M450.5 200.2 L453.0 193.7 L455.4 187.1 L457.8 180.5 L460.1 173.9 L462.6 167.3 L465.1 160.8 L467.9 154.4"/><path d="M597.2 280.4 L600.7 274.4 L604.8 268.7 L609.3 263.3 L614.2 258.3 L619.5 253.7 L625.1 249.5 L630.9 245.7"/><path d="M446.0 248.9 L449.5 242.8 L452.7 236.5 L455.6 230.2 L458.4 223.8 L460.9 217.2 L463.4 210.7 L465.7 204.1 L468.0 197.4 L470.2 190.8"/><path d="M1079.6 325.5 L1085.4 329.4 L1091.0 333.5 L1096.5 338.0 L1101.7 342.6 L1106.8 347.4 L1111.9 352.2 L1116.8 357.2 L1121.8 362.1 L1126.7 367.1 L1131.7 372.0"/><path d="M619.8 225.6 L625.7 221.7 L631.6 218.0 L637.6 214.5 L643.8 211.1 L649.9 207.8 L656.1 204.5 L662.3 201.2 L668.4 197.8 L674.4 194.2 L680.3 190.4 L686.0 186.4"/><path d="M615.1 299.5 L618.5 293.3 L622.5 287.6 L627.1 282.3 L632.3 277.6 L637.8 273.3 L643.7 269.5 L649.9 266.3 L656.3 263.4 L662.9 261.1 L669.6 259.1 L676.4 257.5 L683.3 256.2 L690.2 255.2"/></g><g stroke="#8fdcff" stroke-width="2.00" opacity="0.875"><path d="M818.4 129.0 L811.4 128.9 L804.4 128.2 L797.6 126.9 L790.8 125.0 L784.2 122.6 L777.8 119.8 L771.6 116.5"/><path d="M921.0 232.1 L921.7 225.1 L921.2 218.2 L919.4 211.4 L916.5 205.0 L912.6 199.2 L908.0 194.0 L902.7 189.4 L897.0 185.3 L891.0 181.7"/><path d="M151.2 232.4 L144.8 229.6 L138.4 226.9 L131.8 224.4 L125.2 222.1 L118.5 220.2 L111.7 218.5 L104.8 217.3 L97.8 216.4 L90.9 216.0 L83.9 216.1 L76.9 216.6 L70.0 217.7"/><path d="M883.9 298.8 L890.7 300.1 L897.7 301.2 L904.6 302.3 L911.5 303.2 L918.5 303.9 L925.5 304.5 L932.4 304.9 L939.4 305.2 L946.4 305.3 L953.4 305.3 L960.4 305.1 L967.4 304.8"/><path d="M135.5 257.3 L129.7 253.4 L123.8 249.7 L117.6 246.3 L111.3 243.2 L104.9 240.6 L98.2 238.3 L91.4 236.6 L84.5 235.4"/><path d="M203.0 125.7 L204.6 132.5 L205.8 139.4 L206.4 146.4 L206.2 153.4 L205.1 160.3 L203.1 167.0 L200.1 173.3 L196.0 179.0 L191.1 184.1 L185.5 188.2 L179.4 191.6 L172.8 194.1 L166.1 195.9"/><path d="M273.6 331.4 L267.9 335.5 L262.0 339.2 L255.9 342.6 L249.6 345.7 L243.2 348.5 L236.7 351.2 L230.2 353.6 L223.6 356.0 L217.0 358.4 L210.4 360.7 L203.9 363.2 L197.4 365.9 L191.1 369.0"/><path d="M916.5 249.6 L920.1 243.7 L922.8 237.2 L924.4 230.4 L924.8 223.4 L923.9 216.4 L921.8 209.8 L918.6 203.5 L914.5 197.9 L909.7 192.8"/><path d="M265.2 227.0 L261.8 233.1 L257.4 238.6 L252.1 243.2 L246.1 246.8 L239.6 249.4 L232.8 251.0 L225.8 251.7"/><path d="M878.0 210.0 L876.0 203.3 L872.9 197.0 L868.9 191.2 L864.2 186.0 L859.0 181.3 L853.5 177.0 L847.7 173.1 L841.8 169.4 L835.7 165.8 L829.6 162.4 L823.5 159.1"/><path d="M145.7 197.7 L138.7 198.0 L131.7 198.2 L124.7 198.3 L117.7 198.5 L110.7 198.8 L103.8 199.2 L96.8 199.9 L89.9 200.8 L83.0 202.1 L76.2 203.7 L69.5 205.8"/><path d="M842.4 258.4 L849.0 256.0 L855.3 252.9 L861.2 249.2 L866.5 244.7 L871.1 239.4 L874.8 233.4 L877.3 226.9 L878.5 220.0 L878.3 213.0 L876.8 206.1 L874.1 199.7 L870.5 193.7 L866.1 188.2"/><path d="M219.7 169.4 L218.0 176.2 L215.3 182.7 L211.5 188.6 L206.8 193.7 L201.2 198.0 L195.1 201.4 L188.5 203.9 L181.7 205.5 L174.8 206.5 L167.8 206.9 L160.8 207.0 L153.8 206.7"/><path d="M885.4 169.0 L878.5 167.6 L871.7 166.2 L864.8 164.8 L858.0 163.2 L851.2 161.6 L844.4 159.8 L837.7 157.8 L831.0 155.6 L824.4 153.3"/><path d="M824.0 168.2 L818.6 163.7 L813.0 159.4 L807.4 155.3 L801.7 151.2 L796.0 147.2 L790.3 143.1 L784.6 139.0 L779.0 134.8 L773.5 130.5 L768.1 126.1 L762.8 121.5 L757.6 116.7 L752.7 111.8"/><path d="M199.1 269.8 L192.9 266.5 L186.8 263.1 L180.8 259.5 L174.8 255.8 L168.9 252.0 L163.0 248.3 L157.0 244.6"/><path d="M919.9 254.5 L924.2 249.0 L927.7 242.9 L930.2 236.4 L931.5 229.5 L931.7 222.5 L930.6 215.6 L928.3 209.0 L925.0 202.8 L920.8 197.2 L915.8 192.3"/><path d="M166.2 248.9 L160.3 245.3 L154.2 241.7 L148.1 238.3 L141.9 235.0 L135.6 232.0 L129.2 229.2 L122.7 226.6 L116.1 224.4 L109.3 222.6 L102.5 221.1 L95.5 220.1 L88.6 219.6 L81.6 219.5"/><path d="M777.8 221.7 L783.3 217.3 L788.0 212.2 L791.9 206.4 L794.7 200.0 L796.3 193.2 L796.7 186.2 L795.8 179.2 L793.9 172.5 L791.1 166.1 L787.7 160.0 L783.8 154.1 L779.6 148.6"/><path d="M901.5 136.9 L895.1 139.7 L888.5 142.3 L881.9 144.5 L875.2 146.4 L868.3 147.8 L861.4 148.8 L854.4 149.4 L847.4 149.5 L840.4 149.2 L833.4 148.4 L826.5 147.2 L819.7 145.7 L813.0 143.8 L806.4 141.5"/><path d="M195.1 265.9 L189.0 262.6 L182.9 259.1 L176.9 255.4 L170.9 251.8 L165.0 248.1 L159.0 244.5 L152.9 241.0 L146.8 237.6 L140.6 234.4 L134.3 231.3 L127.9 228.6 L121.3 226.1 L114.6 224.0"/><path d="M131.9 185.4 L125.1 186.9 L118.2 188.3 L111.3 189.5 L104.5 190.8 L97.6 192.2 L90.8 193.8 L84.0 195.6 L77.3 197.6 L70.7 200.0"/><path d="M229.5 333.1 L222.5 333.3 L215.5 333.1 L208.5 332.6 L201.6 331.6 L194.7 330.4 L187.9 328.9 L181.1 327.1 L174.4 325.0 L167.8 322.8 L161.2 320.4"/><path d="M131.9 178.8 L125.2 181.0 L118.5 182.9 L111.7 184.7 L105.0 186.5 L98.2 188.3 L91.4 190.1 L84.8 192.2"/><path d="M229.1 230.1 L222.5 232.5 L215.7 233.9 L208.7 234.4 L201.7 234.2 L194.7 233.5 L187.8 232.3 L181.0 230.7 L174.2 228.9"/><path d="M260.1 186.9 L261.1 193.8 L261.4 200.8 L260.7 207.8 L259.0 214.5 L256.2 221.0 L252.3 226.8 L247.5 231.9"/><path d="M864.4 192.1 L860.0 186.6 L855.1 181.7 L849.7 177.1 L844.1 173.0 L838.3 169.1 L832.4 165.4 L826.3 161.8 L820.3 158.3 L814.2 154.8 L808.1 151.3 L802.1 147.8 L796.1 144.1 L790.2 140.4"/><path d="M853.2 104.6 L847.3 108.5 L841.2 111.9 L834.9 114.9 L828.3 117.2 L821.5 119.0 L814.6 120.0 L807.6 120.4 L800.6 120.1 L793.7 119.1 L786.9 117.5 L780.2 115.3 L773.8 112.6"/><path d="M803.3 222.1 L807.7 216.6 L811.1 210.5 L813.3 203.9 L814.2 196.9 L813.8 190.0 L812.2 183.1 L809.6 176.6 L806.2 170.5 L802.2 164.8 L797.8 159.3 L793.1 154.2 L788.2 149.2"/><path d="M287.8 288.7 L283.0 293.9 L277.7 298.5 L271.9 302.3 L265.7 305.5 L259.1 308.0 L252.3 309.7 L245.4 310.7 L238.4 311.0"/><path d="M296.8 247.0 L295.8 253.9 L294.1 260.7 L291.5 267.2 L288.1 273.4 L284.0 279.0 L279.1 284.0 L273.6 288.4 L267.6 291.9 L261.2 294.7"/><path d="M141.3 232.5 L134.9 229.6 L128.4 226.9 L121.9 224.5 L115.2 222.5 L108.4 220.8 L101.5 219.5 L94.5 218.7 L87.6 218.3 L80.6 218.4 L73.6 219.1"/><path d="M183.6 123.0 L183.7 130.0 L183.2 137.0 L181.9 143.8 L179.8 150.5 L176.7 156.8 L172.8 162.6 L168.1 167.8"/><path d="M874.7 200.8 L871.3 194.8 L867.0 189.2 L862.1 184.2 L856.8 179.6 L851.2 175.5 L845.3 171.6 L839.3 168.0 L833.3 164.5 L827.2 161.1 L821.0 157.7 L814.9 154.4 L808.7 151.0 L802.7 147.5 L796.6 144.0"/><path d="M894.2 216.1 L892.6 209.2 L889.9 202.8 L886.2 196.8 L881.7 191.5 L876.7 186.6 L871.2 182.3 L865.4 178.4 L859.3 174.8 L853.2 171.5 L847.0 168.3 L840.7 165.2"/><path d="M284.1 131.6 L291.1 132.6 L298.1 132.9 L305.1 132.5 L312.0 131.5 L318.8 129.7 L325.3 127.3 L331.7 124.3 L337.8 120.9 L343.7 117.1 L349.4 113.0"/><path d="M812.0 148.9 L805.7 146.0 L799.4 142.8 L793.3 139.5 L787.2 136.0 L781.2 132.3 L775.4 128.4 L769.8 124.3 L764.3 120.0 L758.9 115.4 L753.8 110.7 L748.9 105.7 L744.3 100.4"/><path d="M872.4 139.5 L865.7 141.6 L858.9 143.2 L852.0 144.4 L845.0 145.0 L838.0 145.1 L831.0 144.7 L824.1 143.8 L817.2 142.5"/><path d="M847.9 293.2 L854.6 295.1 L861.4 297.0 L868.1 298.9 L874.9 300.7 L881.7 302.4 L888.5 304.2 L895.3 305.8 L902.1 307.4"/><path d="M244.3 161.2 L246.6 167.8 L248.4 174.5 L249.5 181.5 L249.8 188.5 L249.2 195.4 L247.6 202.2 L245.0 208.7 L241.2 214.6 L236.4 219.7"/><path d="M900.8 200.4 L896.5 194.9 L891.5 190.0 L886.0 185.7 L880.2 181.8 L874.1 178.3 L867.9 175.1 L861.6 172.1 L855.2 169.3 L848.7 166.5 L842.3 163.8 L835.8 161.1 L829.4 158.4"/><path d="M899.0 108.7 L893.5 113.0 L887.9 117.3 L882.2 121.3 L876.4 125.1 L870.3 128.6 L864.0 131.7 L857.5 134.3 L850.8 136.3 L844.0 137.8 L837.0 138.7"/><path d="M156.6 211.3 L149.6 210.4 L142.7 209.4 L135.7 208.5 L128.8 207.6 L121.8 206.8 L114.9 206.2 L107.9 205.9"/><path d="M130.3 171.9 L123.9 174.8 L117.4 177.4 L110.9 179.7 L104.2 182.0 L97.6 184.2 L91.0 186.5 L84.4 188.8 L77.9 191.4 L71.4 194.2 L65.1 197.2 L59.0 200.6 L53.0 204.3"/><path d="M212.7 232.5 L205.7 232.9 L198.7 232.6 L191.8 231.8 L184.9 230.5 L178.1 229.0 L171.3 227.2 L164.6 225.2 L157.9 223.2 L151.2 221.2 L144.5 219.2 L137.7 217.4 L130.9 215.7 L124.1 214.1 L117.2 212.8"/><path d="M268.9 272.4 L262.9 276.0 L256.4 278.7 L249.7 280.4 L242.7 281.3 L235.7 281.3 L228.8 280.6 L221.9 279.2 L215.2 277.3 L208.6 274.8 L202.2 272.0 L196.0 268.8 L189.8 265.5 L183.8 261.9 L177.9 258.2"/><path d="M297.1 202.9 L301.0 208.7 L304.8 214.6 L308.5 220.5 L312.0 226.6 L315.5 232.7 L318.8 238.8 L322.0 245.1 L325.1 251.3 L328.1 257.6 L331.1 264.0 L334.1 270.3 L337.2 276.6"/><path d="M209.2 247.0 L202.3 245.7 L195.5 244.0 L188.8 241.9 L182.2 239.6 L175.7 237.1 L169.2 234.5 L162.7 231.9 L156.2 229.3 L149.7 226.7"/></g><g stroke="#68b9f2" stroke-width="2.00" opacity="0.625"><path d="M646.8 170.5 L652.3 166.1 L657.6 161.6 L662.7 156.8 L667.6 151.7 L672.1 146.4 L676.4 140.8 L680.2 135.0"/><path d="M1055.3 271.6 L1062.3 272.3 L1069.2 273.7 L1075.8 275.9 L1082.1 278.9 L1088.1 282.6 L1093.5 287.0 L1098.5 292.0 L1102.9 297.4 L1107.0 303.1 L1110.7 309.0 L1114.1 315.1 L1117.3 321.3"/><path d="M1032.6 195.6 L1034.4 188.8 L1035.9 182.0 L1037.0 175.1 L1037.7 168.1 L1037.9 161.1 L1037.7 154.1 L1037.1 147.1 L1036.1 140.2 L1034.6 133.4 L1032.7 126.6 L1030.5 120.0"/><path d="M427.3 133.1 L431.0 127.2 L435.1 121.4 L439.5 116.0 L444.3 110.9 L449.5 106.3 L455.2 102.2"/><path d="M628.5 233.6 L634.5 230.0 L640.7 226.7 L646.9 223.6 L653.3 220.6 L659.7 217.7 L666.1 214.9 L672.5 212.1 L678.9 209.3 L685.2 206.3 L691.4 203.1 L697.5 199.6 L703.4 195.8 L708.9 191.6"/><path d="M14.6 107.3 L17.1 113.8 L19.2 120.5 L21.0 127.3 L22.3 134.1 L23.4 141.0 L24.0 148.0 L24.2 155.0 L24.0 162.0 L23.5 169.0 L22.6 175.9 L21.4 182.8 L20.0 189.7"/><path d="M1035.7 259.5 L1042.4 257.4 L1049.2 255.7 L1056.1 254.5 L1063.1 254.0 L1070.1 254.3 L1077.0 255.5 L1083.6 257.6 L1089.9 260.7 L1095.7 264.6 L1100.9 269.3 L1105.5 274.6 L1109.4 280.4"/><path d="M30.7 206.2 L26.8 212.0 L23.1 217.9 L19.4 223.9 L16.0 230.0 L12.8 236.2 L9.7 242.5 L6.8 248.8 L4.1 255.3 L1.6 261.9"/><path d="M646.0 254.8 L652.4 252.0 L658.9 249.5 L665.6 247.3 L672.3 245.4 L679.1 243.8 L686.0 242.3 L692.8 241.0"/><path d="M13.5 170.7 L13.8 177.7 L13.7 184.7 L13.2 191.7 L12.4 198.6 L11.2 205.5 L9.8 212.4 L8.2 219.2 L6.5 226.0 L4.6 232.7 L2.8 239.5 L0.9 246.2"/><path d="M405.5 184.1 L409.4 178.3 L413.0 172.2 L416.3 166.1 L419.4 159.8 L422.5 153.5 L425.5 147.2 L428.7 141.0 L432.1 134.9 L435.7 128.9"/></g><g stroke="#4172bd" stroke-width="0.90" opacity="0.500"><path d="M514.8 199.1 L517.5 192.7 L520.4 186.3 L523.5 180.0 L526.9 173.9 L530.5 167.9 L534.5 162.2 L538.7 156.6 L543.3 151.3"/><path d="M1143.1 118.8 L1148.9 122.8 L1154.1 127.4 L1158.8 132.6 L1162.8 138.3 L1166.2 144.5 L1168.9 150.9 L1170.9 157.6 L1172.2 164.5 L1172.9 171.5 L1172.9 178.5 L1172.4 185.5 L1171.4 192.4 L1170.0 199.3"/><path d="M1169.8 189.3 L1168.8 196.3 L1167.5 203.1 L1165.8 209.9 L1163.9 216.7 L1161.8 223.3 L1159.6 230.0 L1157.3 236.6 L1155.1 243.2 L1152.9 249.9 L1150.7 256.5 L1148.7 263.3 L1146.9 270.0 L1145.2 276.8 L1143.7 283.6"/><path d="M1188.9 245.0 L1182.9 248.6 L1177.3 252.8 L1172.1 257.5 L1167.3 262.6 L1163.0 268.2 L1159.2 274.0 L1155.8 280.1 L1152.9 286.5 L1150.5 293.1"/><path d="M1134.7 282.9 L1134.8 289.9 L1134.9 296.9 L1135.1 303.9 L1135.6 310.9 L1136.2 317.8 L1137.1 324.8 L1138.3 331.7 L1139.9 338.5 L1141.8 345.2 L1144.0 351.9 L1146.6 358.4 L1149.6 364.7 L1152.9 370.9"/></g><g stroke="#68b9f2" stroke-width="1.45" opacity="0.750"><path d="M1012.8 216.0 L1014.6 209.3 L1015.9 202.4 L1016.5 195.4 L1016.3 188.4 L1015.4 181.5 L1013.8 174.7 L1011.3 168.1 L1008.0 161.9 L1003.9 156.3 L999.1 151.2 L993.6 146.8 L987.6 143.2"/><path d="M377.6 306.9 L384.4 308.6 L391.4 309.2 L398.4 308.6 L405.2 307.0 L411.7 304.5 L417.9 301.1 L423.6 297.1 L428.9 292.5 L433.8 287.5 L438.3 282.1 L442.5 276.5 L446.3 270.7 L449.9 264.7 L453.2 258.5"/><path d="M1025.0 150.8 L1022.4 144.3 L1019.1 138.2 L1015.1 132.4 L1010.6 127.0 L1005.5 122.2 L999.9 118.0 L993.9 114.5 L987.5 111.7"/><path d="M58.6 199.9 L52.7 203.7 L47.0 207.7 L41.5 212.1 L36.3 216.8 L31.3 221.7 L26.7 227.0 L22.3 232.4 L18.2 238.1"/><path d="M384.0 304.9 L391.0 305.5 L398.0 305.1 L404.8 303.6 L411.4 301.1 L417.5 297.9 L423.3 293.9 L428.6 289.3"/><path d="M52.8 271.5 L46.1 273.7 L39.8 276.7 L33.8 280.3 L28.3 284.7 L23.4 289.6 L19.0 295.1 L15.3 301.0 L12.1 307.3 L9.7 313.8"/><path d="M53.4 132.3 L51.5 139.1 L49.3 145.7 L47.0 152.3 L44.5 158.9 L41.8 165.3 L39.1 171.8 L36.2 178.2 L33.2 184.5 L30.2 190.8 L27.2 197.1 L24.2 203.4"/><path d="M40.5 212.1 L35.4 216.8 L30.5 221.9 L25.9 227.2 L21.6 232.7 L17.6 238.4 L13.9 244.3 L10.4 250.4 L7.2 256.7 L4.3 263.0 L1.7 269.5"/><path d="M382.2 105.0 L387.4 100.4"/><path d="M39.5 335.8 L36.8 342.2 L35.0 349.0 L34.1 355.9 L34.3 362.9 L35.4 369.9"/><path d="M35.3 329.3 L32.2 335.6 L30.1 342.3 L28.9 349.2 L28.6 356.2 L29.2 363.1 L30.7 370.0"/><path d="M684.1 276.1 L691.1 275.2 L698.1 274.7 L705.1 274.5 L712.1 274.7 L719.0 275.2 L726.0 276.0 L732.9 277.0 L739.8 278.3 L746.6 279.8 L753.4 281.5 L760.2 283.4"/><path d="M675.7 307.4 L682.1 304.5 L688.7 302.4 L695.6 300.9 L702.5 299.9 L709.5 299.6 L716.5 299.7 L723.5 300.3 L730.4 301.3 L737.3 302.7 L744.1 304.4 L750.8 306.4 L757.4 308.7"/></g><g stroke="#4172bd" stroke-width="2.00" opacity="0.500"><path d="M548.5 269.9 L550.2 263.2 L552.4 256.5 L554.9 250.0 L557.7 243.6 L560.9 237.3 L564.4 231.2 L568.1 225.3 L572.1 219.6 L576.4 214.0 L580.9 208.7 L585.6 203.5 L590.5 198.5 L595.6 193.7"/><path d="M557.6 262.3 L560.0 255.7 L562.9 249.3 L566.1 243.1 L569.6 237.1 L573.5 231.2 L577.6 225.5 L582.0 220.1 L586.6 214.8 L591.4 209.8"/><path d="M1152.9 226.6 L1151.8 233.5 L1150.5 240.4 L1149.1 247.3 L1147.6 254.1 L1146.1 261.0 L1144.7 267.8 L1143.4 274.7 L1142.2 281.6"/><path d="M546.2 173.8 L550.4 168.3 L554.9 162.9 L559.7 157.7 L564.7 152.8 L569.9 148.2 L575.4 143.8 L581.0 139.7 L586.8 135.7 L592.7 132.0 L598.7 128.4 L604.8 124.8 L610.8 121.4 L616.9 117.9"/><path d="M1154.9 290.1 L1152.3 296.6 L1150.2 303.3 L1148.6 310.1 L1147.6 317.1 L1147.0 324.0 L1147.0 331.0 L1147.6 338.0"/><path d="M526.9 123.6 L532.8 119.8 L538.9 116.5 L545.3 113.6 L551.8 111.0 L558.5 108.8 L565.2 106.8 L571.9 105.0 L578.7 103.3 L585.5 101.7 L592.4 100.1"/><path d="M552.8 246.0 L555.7 239.6 L558.9 233.4 L562.4 227.3 L566.2 221.4 L570.2 215.7 L574.4 210.1 L578.9 204.7 L583.6 199.5 L588.4 194.5 L593.5 189.6"/></g><g stroke="#5195e0" stroke-width="0.90" opacity="0.500"><path d="M589.6 279.3 L592.8 273.1 L596.4 267.1 L600.6 261.5 L605.2 256.2 L610.1 251.2 L615.4 246.6 L620.9 242.3 L626.7 238.4"/><path d="M497.7 309.7 L496.9 302.8 L496.6 295.8 L496.7 288.8 L497.2 281.8 L498.0 274.8 L499.0 267.9 L500.3 261.0 L501.8 254.2 L503.4 247.4"/><path d="M1117.2 170.3 L1123.7 172.8 L1129.7 176.4 L1135.0 181.0 L1139.5 186.4 L1143.1 192.4 L1145.8 198.8 L1147.6 205.6 L1148.7 212.5 L1149.2 219.5 L1149.1 226.5 L1148.6 233.5 L1147.8 240.4 L1146.8 247.4"/><path d="M478.5 258.7 L480.5 252.0 L482.5 245.3 L484.5 238.6 L486.5 231.9 L488.5 225.2 L490.6 218.5 L492.7 211.8 L494.8 205.1 L497.1 198.5 L499.4 191.9 L501.9 185.4"/><path d="M1125.7 304.8 L1127.3 311.6 L1129.0 318.4 L1130.8 325.2 L1132.7 331.9 L1134.9 338.6 L1137.3 345.2 L1139.9 351.6 L1142.9 358.0 L1146.1 364.2 L1149.7 370.2"/><path d="M484.4 146.4 L488.1 140.5 L492.2 134.8 L496.8 129.5 L501.8 124.6 L507.2 120.2 L513.0 116.2 L519.0 112.8 L525.4 109.8 L531.9 107.3 L538.6 105.1 L545.3 103.4 L552.2 101.9"/><path d="M1111.9 245.4 L1116.0 251.1 L1119.4 257.2 L1122.0 263.7 L1124.1 270.4 L1125.7 277.2 L1127.1 284.1 L1128.2 291.0 L1129.2 297.9 L1130.3 304.8 L1131.3 311.7"/><path d="M561.5 174.7 L566.1 169.4 L570.9 164.4 L576.0 159.5 L581.2 154.9 L586.6 150.5 L592.2 146.2 L597.8 142.1 L603.6 138.1 L609.4 134.2"/></g><g stroke="#4172bd" stroke-width="1.45" opacity="0.500"><path d="M535.7 165.5 L539.9 159.9 L544.4 154.5 L549.1 149.4 L554.2 144.6 L559.6 140.1 L565.2 135.9 L571.0 132.0 L577.0 128.3 L583.1 124.9 L589.3 121.7 L595.6 118.6 L601.9 115.6 L608.2 112.6 L614.6 109.6"/><path d="M534.7 236.9 L537.2 230.4 L540.0 223.9 L542.9 217.6 L546.2 211.4 L549.6 205.3 L553.3 199.3 L557.2 193.5 L561.3 187.9"/><path d="M536.1 310.0 L534.7 303.2 L533.9 296.2 L533.6 289.2 L533.8 282.2 L534.4 275.2 L535.5 268.3 L536.9 261.5 L538.7 254.7 L540.8 248.0 L543.2 241.5"/><path d="M516.4 190.8 L519.3 184.5 L522.4 178.2 L525.8 172.1 L529.5 166.1 L533.5 160.4 L537.8 154.8 L542.4 149.6"/><path d="M1184.7 224.7 L1179.7 229.6 L1175.0 234.7 L1170.6 240.2 L1166.4 245.8 L1162.6 251.7 L1159.1 257.7 L1155.9 263.9 L1153.0 270.3 L1150.5 276.8 L1148.3 283.5"/><path d="M1140.1 181.1 L1143.9 187.0 L1146.9 193.4 L1148.9 200.0 L1150.2 206.9 L1150.8 213.9 L1150.9 220.9 L1150.4 227.9 L1149.7 234.8 L1148.6 241.8 L1147.5 248.7 L1146.2 255.6 L1144.9 262.4"/><path d="M1155.2 139.6 L1159.3 145.3 L1162.7 151.4 L1165.4 157.9 L1167.4 164.6 L1168.7 171.5 L1169.2 178.4 L1169.2 185.4 L1168.6 192.4 L1167.6 199.3 L1166.2 206.2 L1164.5 213.0 L1162.5 219.7 L1160.5 226.4"/></g><g stroke="#68b9f2" stroke-width="0.90" opacity="0.750"><path d="M665.9 119.5 L670.0 113.8 L673.8 107.9 L677.3 101.8"/><path d="M1004.8 155.4 L1000.0 150.3 L994.6 145.9 L988.6 142.2 L982.2 139.4 L975.5 137.3 L968.6 136.1 L961.7 135.6 L954.7 135.8 L947.7 136.6"/><path d="M373.4 144.0 L378.0 138.7 L382.4 133.3 L386.7 127.8 L391.0 122.2 L395.4 116.8 L400.0 111.5 L404.9 106.5 L410.0 101.7"/><path d="M675.7 315.0 L681.8 311.6 L688.3 308.9 L695.0 307.0 L701.9 305.7 L708.8 305.0 L715.8 304.9 L722.8 305.3 L729.8 306.1 L736.7 307.4 L743.5 309.0"/><path d="M392.9 288.6 L399.8 287.8 L406.6 286.0 L413.1 283.2 L419.1 279.7 L424.7 275.6 L429.9 270.9 L434.7 265.8 L439.1 260.3 L443.1 254.6 L446.8 248.7"/><path d="M391.9 199.6 L397.1 194.9 L401.8 189.7 L406.0 184.1 L409.9 178.3 L413.4 172.3 L416.7 166.1 L419.8 159.8"/><path d="M392.5 192.3 L397.4 187.2 L401.8 181.8 L405.8 176.0 L409.4 170.1 L412.8 163.9 L416.1 157.7 L419.2 151.5 L422.4 145.2 L425.6 139.0"/><path d="M393.6 322.5 L400.5 321.4 L407.2 319.2 L413.5 316.2 L419.4 312.5 L424.8 308.1 L429.9 303.3 L434.6 298.0 L438.9 292.6"/><path d="M683.4 139.1 L686.7 133.0 L689.6 126.6 L692.0 120.0 L694.0 113.3 L695.7 106.5"/><path d="M1008.8 128.0 L1003.6 123.4 L997.9 119.4 L991.7 116.1 L985.2 113.6 L978.4 111.8 L971.5 110.9 L964.5 110.8 L957.5 111.4 L950.6 112.7"/><path d="M674.4 104.5"/><path d="M688.5 117.8 L690.8 111.1 L692.7 104.4"/><path d="M681.7 131.9 L684.9 125.7 L687.7 119.2 L690.1 112.7 L692.1 106.0"/><path d="M387.7 161.5 L391.9 155.9 L395.8 150.1 L399.6 144.2 L403.3 138.3 L407.0 132.3 L410.8 126.5 L414.9 120.8 L419.2 115.3 L423.9 110.1 L428.9 105.2 L434.3 100.8"/><path d="M690.7 312.4 L697.4 310.5 L704.3 309.2 L711.2 308.5 L718.2 308.4 L725.2 308.8 L732.2 309.7 L739.0 311.0 L745.8 312.6 L752.6 314.6 L759.2 316.9 L765.7 319.5"/><path d="M386.6 170.6 L391.1 165.2 L395.2 159.5 L399.0 153.7 L402.7 147.7 L406.2 141.7 L409.8 135.7 L413.5 129.7 L417.4 123.9 L421.6 118.3 L426.1 112.9 L430.9 107.9 L436.2 103.3"/><path d="M668.2 313.8 L674.0 309.9 L680.3 306.7 L686.8 304.3 L693.6 302.5 L700.5 301.4 L707.5 300.8 L714.5 300.8 L721.5 301.2 L728.4 302.0 L735.3 303.3 L742.1 304.9 L748.9 306.8 L755.5 309.0 L762.0 311.5"/><path d="M690.9 285.7 L697.9 285.0 L704.9 284.7 L711.9 284.9 L718.9 285.4 L725.8 286.3 L732.7 287.5 L739.5 289.0 L746.3 290.8 L753.0 292.8"/><path d="M678.0 198.5 L684.0 194.9 L689.8 191.0 L695.4 186.8 L700.7 182.2 L705.5 177.1 L709.8 171.6 L713.5 165.7 L716.5 159.3"/><path d="M1007.5 144.5 L1002.6 139.5 L997.0 135.3 L990.9 131.8 L984.5 129.1 L977.7 127.2 L970.8 126.2 L963.8 125.9 L956.8 126.3 L949.9 127.4 L943.1 128.9 L936.4 130.9 L929.7 133.1"/><path d="M670.2 288.5 L676.8 286.3 L683.6 284.6 L690.5 283.5 L697.5 282.8 L704.5 282.6 L711.5 282.7 L718.4 283.3"/><path d="M1008.3 279.1 L1015.0 277.0 L1021.7 274.9 L1028.4 273.1 L1035.3 271.5 L1042.2 270.4 L1049.1 269.7 L1056.1 269.6"/><path d="M671.4 281.9 L678.1 280.0 L685.0 278.6 L691.9 277.7 L698.9 277.2 L705.9 277.1 L712.9 277.4 L719.9 277.9 L726.8 278.8"/></g><g stroke="#5195e0" stroke-width="0.90" opacity="0.625"><path d="M611.8 269.7 L616.6 264.6 L621.9 259.9 L627.4 255.7 L633.3 251.9 L639.4 248.4 L645.6 245.3 L652.0 242.5"/><path d="M448.9 134.8 L452.6 128.9 L456.8 123.2 L461.4 117.9 L466.4 113.1 L471.9 108.7 L477.8 104.9 L484.0 101.7"/><path d="M1090.3 162.8 L1096.9 160.4 L1103.8 158.9 L1110.7 158.6 L1117.7 159.4 L1124.4 161.4 L1130.7 164.5 L1136.4 168.6 L1141.3 173.6 L1145.4 179.3 L1148.6 185.5 L1150.9 192.1 L1152.5 198.9 L1153.3 205.8 L1153.5 212.8"/><path d="M1079.3 171.6 L1085.3 168.0 L1091.6 165.1 L1098.3 163.0 L1105.2 162.0 L1112.2 162.1 L1119.1 163.3 L1125.7 165.7 L1131.8 169.2 L1137.2 173.7 L1141.7 179.0 L1145.5 184.9 L1148.3 191.3"/><path d="M466.5 225.3 L468.8 218.7 L471.1 212.1 L473.3 205.4 L475.5 198.8 L477.7 192.1 L479.9 185.5 L482.2 178.9 L484.7 172.4 L487.4 165.9 L490.3 159.5 L493.6 153.3 L497.1 147.3 L501.1 141.5 L505.5 136.1"/></g><g stroke="#4172bd" stroke-width="0.90" opacity="0.375"><path d="M532.0 224.4 L534.7 218.0 L537.6 211.6 L540.8 205.4 L544.1 199.2 L547.7 193.2 L551.6 187.3 L555.6 181.6 L559.9 176.1 L564.5 170.8"/></g><g stroke="#4172bd" stroke-width="2.00" opacity="0.375"><path d="M532.6 203.8 L535.7 197.5 L539.1 191.4 L542.7 185.4 L546.5 179.5 L550.6 173.8 L554.9 168.3 L559.5 163.1 L564.4 158.0"/></g></g>
<rect width="1200" height="420" fill="url(#ff-vig)"/>
<text x="72" y="60" font-family="system-ui, -apple-system, 'Segoe UI', sans-serif" font-size="25" font-weight="700" fill="#e8ecff">autumn</text>
<text x="72" y="82" font-family="ui-monospace, Menlo, Consolas, monospace" font-size="10" fill="#7c86b8" letter-spacing="4">PYTHON · AI · IMAGE PROCESSING</text>
<text x="1128" y="60" text-anchor="end" font-family="ui-monospace, Menlo, Consolas, monospace" font-size="10" fill="#7c86b8" letter-spacing="3">FLOW FIELD</text>
<text x="1128" y="82" text-anchor="end" font-family="ui-monospace, Menlo, Consolas, monospace" font-size="10" fill="#7c86b8" letter-spacing="3">AUTUMN714</text>
<g transform="translate(946,396)">
<text x="0" y="0" font-family="ui-monospace, Menlo, Consolas, monospace" font-size="9" fill="#4d5578" letter-spacing="2">COOL</text>
<rect x="46" y="-8" width="15" height="9" fill="#33538f"/><rect x="63" y="-8" width="15" height="9" fill="#4172bd"/><rect x="80" y="-8" width="15" height="9" fill="#5195e0"/><rect x="97" y="-8" width="15" height="9" fill="#68b9f2"/><rect x="114" y="-8" width="15" height="9" fill="#8fdcff"/>
<text x="182" y="0" text-anchor="end" font-family="ui-monospace, Menlo, Consolas, monospace" font-size="9" fill="#4d5578" letter-spacing="2">WARM</text>
</g>
<line x1="72" y1="384" x2="1128" y2="384" stroke="#1a2038"/>
<text x="72" y="404" font-family="ui-monospace, Menlo, Consolas, monospace" font-size="9.5" fill="#4d5578" letter-spacing="2.5">BUILDING TOOLS · EXPLORING IDEAS</text>

</svg>
